<?xml version="1.0" encoding="UTF-8"?>
<svg id="Layer_2" data-name="Layer 2" xmlns="http://www.w3.org/2000/svg" viewBox="0 0 234 234">
  <defs>
    <style>
      .cls-1 {
        fill: #fff;
        stroke-width: 0px;
      }
    </style>
  </defs>
  <g id="Layer_1-2" data-name="Layer 1">
    <path class="cls-1" d="m198.36,233.85v-46.95h16.81c4.02,0,7.31.58,9.87,1.73,2.56,1.11,4.47,2.71,5.73,4.82,1.26,2.06,1.88,4.47,1.88,7.23,0,1.81-.43,3.59-1.28,5.35-.8,1.71-1.96,3.24-3.47,4.6-1.46,1.31-3.19,2.26-5.2,2.86l11.3,20.35h-9.27l-10.7-19.44h-6.93v19.44h-8.74Zm8.74-26.6h8.59c2.71,0,4.75-.58,6.1-1.73,1.36-1.16,2.03-2.69,2.03-4.6,0-1.26-.3-2.36-.9-3.32-.6-1.01-1.51-1.81-2.71-2.41-1.21-.6-2.74-.9-4.6-.9h-8.51v12.96Zm-57.33,26.6v-46.95h33.53v7.01h-25.17v11.98h20.8v7.01h-20.8v13.94h25.02v7.01h-33.38Zm-49.12,0v-46.95h17.78c3.92,0,7.11.63,9.57,1.88,2.51,1.26,4.37,2.91,5.58,4.97,1.26,2.06,1.88,4.37,1.88,6.93,0,1.91-.35,3.69-1.05,5.35-.7,1.61-1.76,3.04-3.16,4.3-1.36,1.21-3.09,2.16-5.2,2.86-2.06.65-4.47.98-7.23.98h-9.34v19.67h-8.82Zm8.82-26.75h8.74c1.86,0,3.39-.25,4.6-.75,1.26-.55,2.18-1.31,2.79-2.26.65-1.01.98-2.14.98-3.39s-.33-2.36-.98-3.32c-.6-.95-1.53-1.71-2.79-2.26-1.21-.55-2.71-.83-4.52-.83h-8.82v12.81Zm-44.67,26.75v-18.46l-15.75-28.48h9.12l11.15,19.82,9.87-19.82h8.74l-14.54,28.56v18.39h-8.59Zm-48.14.15L0,186.9h8.74l11.3,33.53,10.7-33.53h8.44l-16.5,47.1h-6.03Zm109.96-110.26l-44.86-44.86c-1.83-1.9-2.83-4.48-2.83-7.35V7.5c0-3.73-3.73-7.46-7.46-7.46h-14.95c-3.73,0-7.46,3.73-7.46,7.46v74.59c0,3.95,1.45,7.76,4.25,10.55l52.21,52.21c2.91,2.91,6.71,4.36,10.55,4.36h7.46c4.14,0,7.46-3.36,7.46-7.46v-7.42c0-3.84-1.45-7.64-4.36-10.55v-.04ZM183.3,7.46c0-3.77-3.69-7.46-7.46-7.46h-14.95c-3.73,0-7.46,3.73-7.46,7.46v64c0,2.87-1.12,5.44-2.98,7.38l-15.03,15.03c-2.91,2.91-4.36,6.71-4.36,10.55v7.46c0,4.14,3.36,7.46,7.46,7.46h7.46c3.8,0,7.64-1.45,10.55-4.36l22.38-22.38c2.8-2.8,4.36-6.6,4.36-10.55V7.46h.04Z"/>
  </g>
</svg>