<?xml version="1.0" encoding="UTF-8"?>
<svg id="Layer_2" data-name="Layer 2" xmlns="http://www.w3.org/2000/svg" viewBox="0 0 200 200">
  <defs>
    <style>
      .cls-1 {
        stroke-width: 0px;
      }
    </style>
  </defs>
  <g id="Layer_1-2" data-name="Layer 1">
    <g id="Layer_1-2" data-name="Layer 1-2">
      <g>
        <path class="cls-1" d="m169.54,199.87v-40.13h14.37c3.44,0,6.25.5,8.44,1.48,2.19.95,3.82,2.32,4.9,4.12,1.08,1.76,1.61,3.82,1.61,6.18,0,1.55-.37,3.07-1.09,4.57-.68,1.46-1.68,2.77-2.97,3.93-1.25,1.12-2.73,1.93-4.44,2.44l9.66,17.39h-7.92l-9.15-16.62h-5.92v16.62h-7.47Zm7.47-22.74h7.34c2.32,0,4.06-.5,5.21-1.48,1.16-.99,1.74-2.3,1.74-3.93,0-1.08-.26-2.02-.77-2.84-.51-.86-1.29-1.55-2.32-2.06-1.03-.51-2.34-.77-3.93-.77h-7.27v11.08Zm-49,22.74v-40.13h28.66v5.99h-21.51v10.24h17.78v5.99h-17.78v11.91h21.38v5.99h-28.53Zm-41.98,0v-40.13h15.2c3.35,0,6.08.54,8.18,1.61,2.15,1.08,3.74,2.49,4.77,4.25,1.08,1.76,1.61,3.74,1.61,5.92,0,1.63-.3,3.15-.9,4.57-.6,1.38-1.5,2.6-2.7,3.68-1.16,1.03-2.64,1.85-4.44,2.44-1.76.56-3.82.84-6.18.84h-7.98v16.81h-7.55Zm7.54-22.86h7.47c1.59,0,2.9-.21,3.93-.64,1.08-.47,1.86-1.12,2.38-1.93.56-.86.84-1.83.84-2.9s-.28-2.02-.84-2.84c-.51-.81-1.31-1.46-2.38-1.93-1.03-.47-2.32-.71-3.86-.71h-7.54v10.95Zm-38.18,22.86v-15.78l-13.46-24.34h7.79l9.53,16.94,8.44-16.94h7.47l-12.43,24.41v15.72h-7.34,0Zm-41.15.13L0,159.74h7.47l9.66,28.66,9.15-28.66h7.21l-14.1,40.26h-5.15,0Z"/>
        <path class="cls-1" d="m108.21,105.76l-38.34-38.34c-1.56-1.62-2.42-3.83-2.42-6.28V6.41c0-3.19-3.19-6.38-6.38-6.38h-12.78c-3.19,0-6.38,3.19-6.38,6.38v63.75c0,3.38,1.24,6.63,3.63,9.02l44.62,44.62c2.49,2.49,5.74,3.73,9.02,3.73h6.38c3.54,0,6.38-2.87,6.38-6.38v-6.34c0-3.28-1.24-6.53-3.73-9.02v-.03h0ZM156.67,6.38c0-3.22-3.15-6.38-6.38-6.38h-12.78c-3.19,0-6.38,3.19-6.38,6.38v54.7c0,2.45-.96,4.65-2.55,6.31l-12.85,12.85c-2.49,2.49-3.73,5.74-3.73,9.02v6.38c0,3.54,2.87,6.38,6.38,6.38h6.38c3.25,0,6.53-1.24,9.02-3.73l19.13-19.13c2.39-2.39,3.73-5.64,3.73-9.02V6.38h.03,0Z"/>
      </g>
    </g>
  </g>
</svg>