<svg width="241" height="241" viewBox="0 0 241 241" fill="none" xmlns="http://www.w3.org/2000/svg">
<path d="M203.942 240.667V192.516H221.178C225.3 192.516 228.675 193.108 231.303 194.293C233.93 195.427 235.888 197.076 237.177 199.24C238.465 201.352 239.109 203.826 239.109 206.66C239.109 208.515 238.671 210.344 237.795 212.147C236.97 213.899 235.785 215.471 234.24 216.862C232.745 218.201 230.968 219.18 228.907 219.799L240.5 240.667H230.993L220.018 220.726H212.908V240.667H203.942ZM212.908 213.384H221.719C224.501 213.384 226.588 212.791 227.979 211.606C229.37 210.421 230.066 208.849 230.066 206.891C230.066 205.603 229.757 204.47 229.138 203.491C228.52 202.46 227.593 201.636 226.356 201.017C225.119 200.399 223.548 200.09 221.641 200.09H212.908V213.384Z" fill="black"/>
<path d="M154.106 240.667V192.516L188.5 192.516V199.704L162.685 199.704V211.993L184.017 211.993V219.18L162.685 219.18V233.479L188.345 233.479V240.667L154.106 240.667Z" fill="black"/>
<path d="M103.729 240.667L103.729 192.516H121.969C125.988 192.516 129.26 193.16 131.785 194.448C134.361 195.736 136.267 197.436 137.504 199.549C138.792 201.662 139.436 204.032 139.436 206.66C139.436 208.618 139.076 210.447 138.354 212.147C137.633 213.796 136.551 215.264 135.108 216.553C133.717 217.789 131.939 218.768 129.775 219.49C127.663 220.159 125.189 220.494 122.355 220.494H112.772V240.667H103.729ZM112.772 213.229H121.737C123.644 213.229 125.215 212.972 126.452 212.456C127.74 211.89 128.693 211.117 129.311 210.138C129.981 209.107 130.316 207.948 130.316 206.66C130.316 205.371 129.981 204.238 129.311 203.259C128.693 202.28 127.74 201.507 126.452 200.94C125.215 200.373 123.669 200.09 121.814 200.09H112.772L112.772 213.229Z" fill="black"/>
<path d="M66.9538 240.667V221.731L50.8003 192.516L60.1523 192.516L71.5912 212.843L81.716 192.516H90.6816L75.7648 221.808V240.667H66.9538Z" fill="black"/>
<path d="M17.5809 240.821L0.5 192.515H9.46556L21.059 226.909L32.034 192.515H40.6904L23.7641 240.821H17.5809Z" fill="black"/>
<path d="M130.36 127.732L84.3455 81.7178C82.4712 79.7671 81.4385 77.1279 81.4385 74.1827L81.4385 8.50844C81.4385 4.6835 77.6135 0.858555 73.7885 0.858555L58.4503 0.858555C54.6253 0.858555 50.8003 4.6835 50.8003 8.50844L50.8003 85.0073C50.8003 89.0617 52.2921 92.9631 55.1608 95.8318L108.711 149.381C111.694 152.364 115.596 153.856 119.535 153.856H127.185C131.431 153.856 134.835 150.414 134.835 146.206V138.595C134.835 134.655 133.343 130.754 130.36 127.77V127.732Z" fill="black"/>
<path d="M188.5 8.4702C188.5 4.607 184.713 0.820313 180.85 0.820313L165.512 0.820313C161.687 0.820313 157.862 4.64525 157.862 8.4702L157.862 74.1062C157.862 77.0514 156.714 79.6906 154.802 81.6796L139.387 97.0941C136.404 100.078 134.912 103.979 134.912 107.919V115.569C134.912 119.814 138.354 123.218 142.562 123.218L150.212 123.218C154.113 123.218 158.053 121.727 161.037 118.743L183.986 95.7936C186.855 92.9249 188.462 89.0235 188.462 84.969L188.462 8.4702H188.5Z" fill="black"/>
</svg>
