<?xml version="1.0" encoding="UTF-8"?>
<svg id="Layer_2" data-name="Layer 2" xmlns="http://www.w3.org/2000/svg" viewBox="0 0 115.17 128">
  <defs>
    <style>
      .cls-1 {
        fill: #e7ff54;
        stroke-width: 0px;
      }
    </style>
  </defs>
  <g id="Layer_1-2" data-name="Layer 1">
    <path class="cls-1" d="m66.54,106.15l-38.49-38.49c-1.57-1.63-2.43-3.84-2.43-6.3V6.43C25.63,3.23,22.43.03,19.23.03H6.4C3.2.03,0,3.23,0,6.43v63.98c0,3.39,1.25,6.65,3.65,9.05l44.79,44.79c2.5,2.5,5.76,3.74,9.05,3.74h6.4c3.55,0,6.4-2.88,6.4-6.4v-6.37c0-3.3-1.25-6.56-3.74-9.05v-.03ZM115.17,6.4c0-3.23-3.17-6.4-6.4-6.4h-12.83c-3.2,0-6.4,3.2-6.4,6.4v54.9c0,2.46-.96,4.67-2.56,6.33l-12.89,12.89c-2.5,2.5-3.74,5.76-3.74,9.05v6.4c0,3.55,2.88,6.4,6.4,6.4h6.4c3.26,0,6.56-1.25,9.05-3.74l19.2-19.2c2.4-2.4,3.74-5.66,3.74-9.05V6.4h.03Z"/>
  </g>
</svg>