<svg width="305" height="339" viewBox="0 0 305 339" fill="none" xmlns="http://www.w3.org/2000/svg">
<path d="M176.422 280.98L74.736 179.295C70.5942 174.984 68.312 169.152 68.312 162.644V17.5126C68.312 9.06005 59.8593 0.60746 51.4066 0.60746H17.5113C9.05864 0.60746 0.605957 9.06005 0.605957 17.5126V186.565C0.605957 195.524 3.9025 204.146 10.242 210.485L128.58 328.822C135.173 335.415 143.794 338.711 152.501 338.711H169.406C178.789 338.711 186.311 331.104 186.311 321.806V304.985C186.311 296.279 183.015 287.658 176.422 281.064V280.98Z" fill="white"/>
<path d="M304.903 17.4281C304.903 8.89102 296.535 0.522949 287.998 0.522949H254.102C245.65 0.522949 237.197 8.97554 237.197 17.4281V162.475C237.197 168.983 234.661 174.815 230.435 179.211L196.371 213.275C189.778 219.868 186.481 228.489 186.481 237.196V254.101C186.481 263.483 194.088 271.006 203.386 271.006H220.292C228.913 271.006 237.62 267.709 244.213 261.116L294.929 210.401C301.268 204.061 304.819 195.44 304.819 186.48V17.4281H304.903Z" fill="white"/>
</svg>
