<svg width="601" height="113" viewBox="0 0 601 113" fill="none" xmlns="http://www.w3.org/2000/svg">
<path d="M41.915 4.24962C37.5509 -0.114459 30.4866 -0.114459 26.1299 4.24962L3.79861 26.5882C1.70414 28.6827 0.529192 31.5215 0.529192 34.4844L0.5 107.076C0.5 109.871 3.29506 112.658 6.09012 112.658H17.2995C20.0946 112.658 22.8896 109.863 22.8896 107.076L22.8605 41.0816C22.9699 39.1696 23.7289 37.3378 25.1739 35.8856L31.1216 29.9233C31.917 29.2811 32.9314 28.8943 34.0334 28.8943C35.1353 28.8943 36.1424 29.2811 36.9452 29.916L42.8929 35.8783C44.3379 37.3232 45.0968 39.1623 45.2063 41.0743L45.1698 76.8335C45.1698 79.9132 46.4177 82.6937 48.4465 84.7297L52.3946 88.6778C54.584 90.8672 58.1161 90.8526 60.2909 88.6778L64.239 84.7297C66.2459 82.7228 67.5084 79.9132 67.5084 76.8408L67.5449 34.4771C67.5449 31.5142 66.3699 28.6754 64.2755 26.5809L41.915 4.24962ZM112.171 34.5063C112.171 31.5434 110.989 28.7045 108.894 26.6101L84.8115 2.47626C82.8192 0.483961 78.9075 0.483961 76.9152 2.47626L68.9971 10.1754C67.0267 12.1458 67.0851 15.7072 69.0555 17.6776L87.6722 36.0607C89.1901 37.5787 89.8032 39.0747 89.8469 41.0889V99.1867C89.8469 102.266 91.0876 105.047 93.1164 107.083L97.0645 111.031C99.2538 113.22 102.786 113.206 104.961 111.031L108.909 107.083C110.916 105.076 112.178 102.266 112.178 99.194L112.171 34.5063Z" fill="#FF8F08"/>
<path d="M230.29 85.6872C225.334 85.6872 221.166 84.5525 217.762 82.2831C214.416 80.0137 211.857 76.737 210.062 72.4414C208.337 68.1458 207.469 62.9239 207.469 56.7757C207.469 50.6276 208.337 45.7067 210.062 41.469C211.857 37.1734 214.416 33.8967 217.762 31.6273C221.166 29.3 225.334 28.1422 230.29 28.1422C235.245 28.1422 239.298 29.3116 242.644 31.6273C246.048 33.8967 248.607 37.1734 250.344 41.469C252.138 45.7067 253.03 50.8012 253.03 56.7757C253.03 62.7502 252.138 68.1689 250.344 72.5225C248.619 76.8181 246.048 80.0948 242.644 82.3642C239.298 84.5756 235.188 85.6756 230.29 85.6756V85.6872ZM230.29 77.3623C232.918 77.3623 235.153 76.6212 237.005 75.1276C238.858 73.5761 240.282 71.2836 241.301 68.2384C242.32 65.1933 242.818 61.3492 242.818 56.6947C242.818 52.3991 242.308 48.7634 241.301 45.7762C240.282 42.731 238.858 40.4385 237.005 38.887C235.153 37.2776 232.918 36.4671 230.29 36.4671C227.662 36.4671 225.311 37.2776 223.401 38.887C221.548 40.4385 220.124 42.731 219.105 45.7762C218.156 48.7634 217.669 52.3991 217.669 56.6947C217.669 61.3492 218.144 65.1933 219.105 68.2384C220.124 71.2836 221.548 73.5761 223.401 75.1276C225.311 76.6212 227.604 77.3623 230.29 77.3623ZM291.216 85.5946C287.812 85.5946 284.651 85.0272 281.733 83.8925C278.815 82.7578 276.21 81.0326 273.952 78.7054C271.741 76.3781 270.016 73.4256 268.765 69.8478C267.515 66.2122 266.889 61.9397 266.889 57.0536C266.889 52.7001 267.364 48.9139 268.325 45.6836C269.344 42.4068 270.652 39.6627 272.262 37.4513C273.929 35.1819 275.816 33.3641 277.901 31.9862C280.043 30.6084 282.254 29.6242 284.523 29.0337C286.851 28.3737 289.178 28.0495 291.505 28.0495C296.102 28.0495 300.004 28.999 303.223 30.9094C306.499 32.8199 309.012 35.5061 310.737 38.968L304.299 43.8889L303.674 44.3404L303.142 43.7152C303.2 43.2405 303.142 42.7889 302.968 42.3721C302.852 41.8974 302.516 41.2722 301.984 40.4964C300.548 38.887 298.973 37.8102 297.237 37.2776C295.569 36.6871 293.809 36.386 291.957 36.386C289.988 36.386 288.113 36.8029 286.318 37.6365C284.523 38.4702 282.914 39.7554 281.49 41.4806C280.112 43.1479 279.047 45.2667 278.271 47.8371C277.495 50.3381 277.113 53.2674 277.113 56.602C277.113 59.9366 277.472 62.7155 278.19 65.2859C278.908 67.7869 279.892 69.9405 281.143 71.7236C282.451 73.4487 283.979 74.7918 285.704 75.7529C287.499 76.6444 289.41 77.096 291.436 77.096C293.045 77.096 294.574 76.9223 295.998 76.5633C297.433 76.1465 298.742 75.4866 299.934 74.595C301.127 73.6456 302.169 72.453 303.072 71.0173L310.054 76.297C307.785 79.6432 305.133 82.0284 302.088 83.4525C299.043 84.8883 295.43 85.5946 291.262 85.5946H291.216ZM349.363 85.5946C345.959 85.5946 342.798 85.0272 339.88 83.8925C336.962 82.7578 334.357 81.0326 332.099 78.7054C329.888 76.3781 328.163 73.4256 326.912 69.8478C325.662 66.2122 325.037 61.9397 325.037 57.0536C325.037 52.7001 325.511 48.9139 326.472 45.6836C327.491 42.4068 328.8 39.6627 330.409 37.4513C332.076 35.1819 333.964 33.3641 336.048 31.9862C338.201 30.6084 340.401 29.6242 342.671 29.0337C344.998 28.3737 347.325 28.0495 349.652 28.0495C354.249 28.0495 358.151 28.999 361.381 30.9094C364.658 32.8199 367.171 35.5061 368.896 38.968L362.458 43.8889L361.833 44.3404L361.3 43.7152C361.358 43.2405 361.3 42.7889 361.127 42.3721C361.011 41.8974 360.675 41.2722 360.142 40.4964C358.707 38.887 357.132 37.8102 355.395 37.2776C353.728 36.6871 351.968 36.386 350.116 36.386C348.147 36.386 346.271 36.8029 344.477 37.6365C342.682 38.4702 341.073 39.7554 339.649 41.4806C338.271 43.1479 337.206 45.2667 336.43 47.8371C335.654 50.3381 335.26 53.2674 335.26 56.602C335.26 59.9366 335.619 62.7155 336.337 65.2859C337.055 67.7869 338.039 69.9405 339.29 71.7236C340.598 73.4487 342.126 74.7918 343.852 75.7529C345.646 76.6444 347.557 77.096 349.583 77.096C351.192 77.096 352.709 76.9223 354.145 76.5633C355.581 76.1465 356.889 75.4866 358.082 74.595C359.274 73.6456 360.316 72.453 361.219 71.0173L368.201 76.297C365.932 79.6432 363.28 82.0284 360.235 83.4525C357.19 84.8883 353.577 85.5946 349.409 85.5946H349.363ZM416.286 71.4572H391.949L393.743 64.1165H414.411L416.286 71.4572ZM404.569 46.853L391.509 84.622H381.215L402.242 28.42H406.989L428.015 84.622H417.456L404.569 46.853ZM462.01 85.6061C457.957 85.6061 454.16 85.0735 450.64 83.9967C447.12 82.862 444.167 81.16 441.782 78.8906L446.796 70.5657L447.247 69.8478L448.058 70.2994C448.174 70.7162 448.324 71.1678 448.509 71.6425C448.753 72.0593 449.227 72.5919 449.945 73.2519C451.612 74.3866 453.5 75.3129 455.584 76.0307C457.668 76.7486 459.972 77.1075 462.473 77.1075C464.082 77.1075 465.541 76.957 466.861 76.656C468.239 76.3549 469.397 75.9149 470.346 75.3129C471.365 74.7108 472.141 73.9698 472.674 73.0782C473.206 72.1288 473.484 71.0751 473.484 69.9405C473.484 69.1647 473.368 68.4468 473.125 67.7869C472.94 67.1269 472.593 66.5017 472.048 65.9112C471.516 65.3091 470.763 64.7186 469.814 64.1165C468.864 63.4565 467.637 62.7734 466.143 62.0555C464.708 61.2798 462.948 60.4693 460.864 59.6356C456.626 57.9683 453.291 56.2894 450.837 54.6221C448.394 52.8969 446.634 51.0444 445.557 49.076C444.538 47.0498 444.04 44.7804 444.04 42.2795C444.04 39.4775 444.851 36.9997 446.46 34.8461C448.127 32.7041 450.431 31.0252 453.349 29.8326C456.336 28.5821 459.706 27.9569 463.457 27.9569C465.958 27.9569 468.32 28.2232 470.532 28.7674C472.743 29.3 474.793 30.1105 476.703 31.1873C478.613 32.2062 480.339 33.5146 481.89 35.124L475.452 42.6384L474.827 42.1058C474.769 41.6311 474.654 41.1795 474.468 40.7627C474.295 40.288 473.878 39.7206 473.218 39.0607C471.84 37.9839 470.358 37.266 468.749 36.9071C467.197 36.4902 465.402 36.2818 463.376 36.2818C461.998 36.2818 460.748 36.4324 459.613 36.7334C458.478 36.9765 457.494 37.3586 456.661 37.8912C455.885 38.4239 455.26 39.0607 454.785 39.767C454.368 40.4269 454.16 41.1448 454.16 41.9205C454.16 42.6384 454.252 43.2868 454.426 43.8889C454.669 44.4794 455.051 45.0815 455.595 45.6836C456.128 46.2741 456.904 46.9109 457.923 47.5593C458.942 48.2192 460.215 48.9024 461.767 49.6202C463.318 50.3381 465.229 51.137 467.498 52.0401C470.601 53.2906 473.195 54.5411 475.279 55.8031C477.363 57.0536 479.007 58.3388 480.2 59.6472C481.45 60.9556 482.342 62.426 482.886 64.0354C483.418 65.587 483.696 67.3469 483.696 69.3152C483.696 72.0593 482.921 74.6876 481.369 77.1886C479.875 79.6316 477.525 81.6579 474.295 83.2789C471.134 84.8304 467.047 85.6061 462.033 85.6061H462.01ZM503.252 84.622V76.297H515.421V37.185H503.878V28.86H537.351V37.185H525.182V76.3781H537.895V84.6104H503.264L503.252 84.622ZM558.181 28.8716H568.833L590.844 66.0154L590.392 28.8716H600.5V29.6821C600.141 30.041 599.91 30.4231 599.782 30.8399C599.724 31.2568 599.69 31.9746 599.69 32.9935V84.6335H590.299L567.571 45.1625V84.6335H558.169V28.8832L558.181 28.8716ZM150.572 84.622V28.8716H159.615L172.143 54.46L184.671 28.779H193.621V84.622H184.578V45.3362L174.285 66.0964H169.271L159.522 45.4288V84.622H150.572Z" fill="#180C25"/>
</svg>
