<svg width="601" height="113" viewBox="0 0 601 113" fill="none" xmlns="http://www.w3.org/2000/svg">
<path d="M41.915 3.89367C37.5509 -0.470416 30.4866 -0.470416 26.1299 3.89367L3.79861 26.2322C1.70414 28.3267 0.529192 31.1655 0.529192 34.1284L0.5 106.72C0.5 109.515 3.29506 112.302 6.09012 112.302H17.2995C20.0946 112.302 22.8896 109.507 22.8896 106.72L22.8605 40.7257C22.9699 38.8136 23.7289 36.9819 25.1739 35.5296L31.1216 29.5673C31.917 28.9251 32.9314 28.5383 34.0334 28.5383C35.1353 28.5383 36.1424 28.9251 36.9452 29.56L42.8929 35.5223C44.3379 36.9673 45.0968 38.8063 45.2063 40.7184L45.1698 76.4776C45.1698 79.5572 46.4177 82.3377 48.4465 84.3738L52.3946 88.3219C54.584 90.5112 58.1161 90.4966 60.2909 88.3219L64.239 84.3738C66.2459 82.3669 67.5084 79.5572 67.5084 76.4849L67.5449 34.1211C67.5449 31.1582 66.3699 28.3194 64.2755 26.2249L41.915 3.89367ZM112.171 34.1503C112.171 31.1874 110.989 28.3486 108.894 26.2541L84.8115 2.1203C82.8192 0.128004 78.9075 0.128004 76.9152 2.1203L68.9971 9.81948C67.0267 11.7899 67.0851 15.3512 69.0555 17.3216L87.6722 35.7048C89.1901 37.2227 89.8032 38.7188 89.8469 40.733V98.8307C89.8469 101.91 91.0876 104.691 93.1164 106.727L97.0645 110.675C99.2538 112.864 102.786 112.85 104.961 110.675L108.909 106.727C110.916 104.72 112.178 101.91 112.178 98.838L112.171 34.1503Z" fill="#FF8F08"/>
<path d="M230.29 85.3312C225.334 85.3312 221.166 84.1965 217.762 81.9272C214.416 79.6578 211.857 76.3811 210.062 72.0855C208.337 67.7898 207.469 62.5679 207.469 56.4198C207.469 50.2716 208.337 45.3508 210.062 41.113C211.857 36.8174 214.416 33.5407 217.762 31.2713C221.166 28.9441 225.334 27.7862 230.29 27.7862C235.245 27.7862 239.298 28.9556 242.644 31.2713C246.048 33.5407 248.607 36.8174 250.344 41.113C252.138 45.3508 253.03 50.4453 253.03 56.4198C253.03 62.3943 252.138 67.813 250.344 72.1665C248.619 76.4621 246.048 79.7388 242.644 82.0082C239.298 84.2197 235.188 85.3196 230.29 85.3196V85.3312ZM230.29 77.0063C232.918 77.0063 235.153 76.2653 237.005 74.7716C238.858 73.2201 240.282 70.9276 241.301 67.8825C242.32 64.8373 242.818 60.9933 242.818 56.3387C242.818 52.0431 242.308 48.4075 241.301 45.4202C240.282 42.3751 238.858 40.0826 237.005 38.531C235.153 36.9216 232.918 36.1111 230.29 36.1111C227.662 36.1111 225.311 36.9216 223.401 38.531C221.548 40.0826 220.124 42.3751 219.105 45.4202C218.156 48.4075 217.669 52.0431 217.669 56.3387C217.669 60.9933 218.144 64.8373 219.105 67.8825C220.124 70.9276 221.548 73.2201 223.401 74.7716C225.311 76.2653 227.604 77.0063 230.29 77.0063ZM291.216 85.2386C287.812 85.2386 284.651 84.6713 281.733 83.5366C278.815 82.4019 276.21 80.6767 273.952 78.3494C271.741 76.0221 270.016 73.0696 268.765 69.4919C267.515 65.8562 266.889 61.5838 266.889 56.6977C266.889 52.3441 267.364 48.558 268.325 45.3276C269.344 42.0509 270.652 39.3068 272.262 37.0953C273.929 34.8259 275.816 33.0081 277.901 31.6303C280.043 30.2524 282.254 29.2682 284.523 28.6777C286.851 28.0178 289.178 27.6936 291.505 27.6936C296.102 27.6936 300.004 28.643 303.223 30.5535C306.499 32.4639 309.012 35.1501 310.737 38.6121L304.299 43.5329L303.674 43.9845L303.142 43.3593C303.2 42.8845 303.142 42.433 302.968 42.0162C302.852 41.5414 302.516 40.9162 301.984 40.1404C300.548 38.531 298.973 37.4542 297.237 36.9216C295.569 36.3311 293.809 36.0301 291.957 36.0301C289.988 36.0301 288.113 36.4469 286.318 37.2806C284.523 38.1142 282.914 39.3994 281.49 41.1246C280.112 42.7919 279.047 44.9108 278.271 47.4812C277.495 49.9821 277.113 52.9115 277.113 56.2461C277.113 59.5807 277.472 62.3595 278.19 64.9299C278.908 67.4309 279.892 69.5845 281.143 71.3676C282.451 73.0928 283.979 74.4359 285.704 75.3969C287.499 76.2884 289.41 76.74 291.436 76.74C293.045 76.74 294.574 76.5663 295.998 76.2074C297.433 75.7906 298.742 75.1306 299.934 74.2391C301.127 73.2896 302.169 72.097 303.072 70.6613L310.054 75.9411C307.785 79.2873 305.133 81.6724 302.088 83.0966C299.043 84.5323 295.43 85.2386 291.262 85.2386H291.216ZM349.363 85.2386C345.959 85.2386 342.798 84.6713 339.88 83.5366C336.962 82.4019 334.357 80.6767 332.099 78.3494C329.888 76.0221 328.163 73.0696 326.912 69.4919C325.662 65.8562 325.037 61.5838 325.037 56.6977C325.037 52.3441 325.511 48.558 326.472 45.3276C327.491 42.0509 328.8 39.3068 330.409 37.0953C332.076 34.8259 333.964 33.0081 336.048 31.6303C338.201 30.2524 340.401 29.2682 342.671 28.6777C344.998 28.0178 347.325 27.6936 349.652 27.6936C354.249 27.6936 358.151 28.643 361.381 30.5535C364.658 32.4639 367.171 35.1501 368.896 38.6121L362.458 43.5329L361.833 43.9845L361.3 43.3593C361.358 42.8845 361.3 42.433 361.127 42.0162C361.011 41.5414 360.675 40.9162 360.142 40.1404C358.707 38.531 357.132 37.4542 355.395 36.9216C353.728 36.3311 351.968 36.0301 350.116 36.0301C348.147 36.0301 346.271 36.4469 344.477 37.2806C342.682 38.1142 341.073 39.3994 339.649 41.1246C338.271 42.7919 337.206 44.9108 336.43 47.4812C335.654 49.9821 335.26 52.9115 335.26 56.2461C335.26 59.5807 335.619 62.3595 336.337 64.9299C337.055 67.4309 338.039 69.5845 339.29 71.3676C340.598 73.0928 342.126 74.4359 343.852 75.3969C345.646 76.2884 347.557 76.74 349.583 76.74C351.192 76.74 352.709 76.5663 354.145 76.2074C355.581 75.7906 356.889 75.1306 358.082 74.2391C359.274 73.2896 360.316 72.097 361.219 70.6613L368.201 75.9411C365.932 79.2873 363.28 81.6724 360.235 83.0966C357.19 84.5323 353.577 85.2386 349.409 85.2386H349.363ZM416.286 71.1013H391.949L393.743 63.7605H414.411L416.286 71.1013ZM404.569 46.497L391.509 84.266H381.215L402.242 28.0641H406.989L428.015 84.266H417.456L404.569 46.497ZM462.01 85.2502C457.957 85.2502 454.16 84.7176 450.64 83.6408C447.12 82.5061 444.167 80.804 441.782 78.5347L446.796 70.2097L447.247 69.4919L448.058 69.9434C448.174 70.3603 448.324 70.8118 448.509 71.2865C448.753 71.7034 449.227 72.236 449.945 72.8959C451.612 74.0306 453.5 74.9569 455.584 75.6748C457.668 76.3926 459.972 76.7516 462.473 76.7516C464.082 76.7516 465.541 76.6011 466.861 76.3C468.239 75.999 469.397 75.559 470.346 74.9569C471.365 74.3548 472.141 73.6138 472.674 72.7223C473.206 71.7728 473.484 70.7192 473.484 69.5845C473.484 68.8087 473.368 68.0909 473.125 67.4309C472.94 66.7709 472.593 66.1457 472.048 65.5552C471.516 64.9531 470.763 64.3626 469.814 63.7605C468.864 63.1006 467.637 62.4174 466.143 61.6996C464.708 60.9238 462.948 60.1133 460.864 59.2797C456.626 57.6124 453.291 55.9335 450.837 54.2662C448.394 52.541 446.634 50.6884 445.557 48.7201C444.538 46.6938 444.04 44.4245 444.04 41.9235C444.04 39.1215 444.851 36.6437 446.46 34.4901C448.127 32.3481 450.431 30.6692 453.349 29.4767C456.336 28.2262 459.706 27.601 463.457 27.601C465.958 27.601 468.32 27.8673 470.532 28.4114C472.743 28.9441 474.793 29.7545 476.703 30.8313C478.613 31.8502 480.339 33.1586 481.89 34.768L475.452 42.2825L474.827 41.7499C474.769 41.2751 474.654 40.8236 474.468 40.4067C474.295 39.932 473.878 39.3647 473.218 38.7047C471.84 37.6279 470.358 36.91 468.749 36.5511C467.197 36.1343 465.402 35.9259 463.376 35.9259C461.998 35.9259 460.748 36.0764 459.613 36.3774C458.478 36.6206 457.494 37.0027 456.661 37.5353C455.885 38.0679 455.26 38.7047 454.785 39.411C454.368 40.071 454.16 40.7888 454.16 41.5646C454.16 42.2825 454.252 42.9308 454.426 43.5329C454.669 44.1234 455.051 44.7255 455.595 45.3276C456.128 45.9181 456.904 46.5549 457.923 47.2033C458.942 47.8633 460.215 48.5464 461.767 49.2643C463.318 49.9821 465.229 50.7811 467.498 51.6842C470.601 52.9347 473.195 54.1851 475.279 55.4472C477.363 56.6977 479.007 57.9829 480.2 59.2912C481.45 60.5996 482.342 62.0701 482.886 63.6795C483.418 65.231 483.696 66.9909 483.696 68.9593C483.696 71.7034 482.921 74.3317 481.369 76.8326C479.875 79.2757 477.525 81.3019 474.295 82.9229C471.134 84.4744 467.047 85.2502 462.033 85.2502H462.01ZM503.252 84.266V75.9411H515.421V36.829H503.878V28.5041H537.351V36.829H525.182V76.0221H537.895V84.2544H503.264L503.252 84.266ZM558.181 28.5156H568.833L590.844 65.6594L590.392 28.5156H600.5V29.3261C600.141 29.6851 599.91 30.0672 599.782 30.484C599.724 30.9008 599.69 31.6187 599.69 32.6376V84.2776H590.299L567.571 44.8066V84.2776H558.169V28.5272L558.181 28.5156ZM150.572 84.266V28.5156H159.615L172.143 54.1041L184.671 28.423H193.621V84.266H184.578V44.9802L174.285 65.7405H169.271L159.522 45.0729V84.266H150.572Z" fill="white"/>
</svg>
