<svg width="478" height="129" viewBox="0 0 478 129" fill="none" xmlns="http://www.w3.org/2000/svg">
<path d="M66.7018 106.35L28.2043 67.8636C26.6362 66.232 25.7722 64.0245 25.7722 61.5611V6.63089C25.7722 3.43169 22.5721 0.232487 19.3719 0.232487H6.53942C3.33929 0.232487 0.13916 3.43169 0.13916 6.63089V70.6149C0.13916 74.0061 1.38721 77.2692 3.78731 79.6686L48.5891 124.457C51.0852 126.953 54.3494 128.2 57.6455 128.2H64.0457C67.5979 128.2 70.446 125.321 70.446 121.802V115.436C70.446 112.141 69.1979 108.877 66.7018 106.382V106.35Z" fill="white"/>
<path d="M115.344 6.5989C115.344 3.36771 112.176 0.2005 108.944 0.2005H96.1112C92.9111 0.2005 89.7109 3.3997 89.7109 6.5989V61.4972C89.7109 63.9606 88.7509 66.168 87.1509 67.8316L74.2543 80.7244C71.7582 83.2198 70.5102 86.483 70.5102 89.7781V96.1765C70.5102 99.7276 73.3903 102.575 76.9104 102.575H83.3107C86.5748 102.575 89.871 101.327 92.3671 98.8319L111.568 79.6367C113.968 77.2373 115.312 73.9741 115.312 70.5829V6.5989H115.344Z" fill="white"/>
<path d="M429.137 95.9436V32.2532H451.934C457.387 32.2532 461.851 33.037 465.327 34.6045C468.803 36.1039 471.392 38.2849 473.096 41.1474C474.8 43.9417 475.652 47.2131 475.652 50.9616C475.652 53.4152 475.073 55.8347 473.914 58.2201C472.824 60.5373 471.256 62.6161 469.211 64.4562C467.235 66.2283 464.884 67.5232 462.157 68.341L477.492 95.9436H464.918L450.401 69.5678H440.995V95.9436H429.137ZM440.995 59.8558H452.65C456.33 59.8558 459.091 59.072 460.931 57.5045C462.771 55.9369 463.691 53.8582 463.691 51.2683C463.691 49.5645 463.282 48.0651 462.464 46.7701C461.646 45.407 460.42 44.3166 458.784 43.4987C457.148 42.6809 455.069 42.2719 452.548 42.2719H440.995V59.8558Z" fill="white"/>
<path d="M363.218 95.9436V32.2532H408.711V41.7608H374.565V58.0156H402.781V67.5232H374.565V86.4361H408.506V95.9436H363.218Z" fill="white"/>
<path d="M296.583 95.9436V32.2532H320.71C326.026 32.2532 330.354 33.1051 333.693 34.809C337.101 36.5129 339.623 38.762 341.258 41.5563C342.962 44.3506 343.814 47.4858 343.814 50.9616C343.814 53.5515 343.337 55.971 342.383 58.2201C341.429 60.401 339.997 62.3434 338.089 64.0473C336.249 65.683 333.898 66.978 331.035 67.9321C328.241 68.8181 324.969 69.2611 321.221 69.2611H308.544V95.9436H296.583ZM308.544 59.6513H320.403C322.925 59.6513 325.003 59.3106 326.639 58.629C328.343 57.8793 329.604 56.857 330.422 55.5621C331.308 54.199 331.751 52.6655 331.751 50.9616C331.751 49.2578 331.308 47.7584 330.422 46.4634C329.604 45.1685 328.343 44.1462 326.639 43.3965C325.003 42.6468 322.959 42.2719 320.505 42.2719H308.544V59.6513Z" fill="white"/>
<path d="M247.94 95.9436V70.8968L226.574 32.2532H238.944L254.074 59.1402L267.466 32.2532H279.325L259.595 70.9991V95.9436H247.94Z" fill="white"/>
<path d="M182.634 96.1479L160.04 32.253H171.899L187.234 77.7462L201.751 32.253H213.201L190.812 96.1479H182.634Z" fill="white"/>
</svg>
