<svg width="251" height="251" viewBox="0 0 251 251" fill="none" xmlns="http://www.w3.org/2000/svg">
<path d="M92.9036 7.77434C83.1354 -1.99387 67.3233 -1.99387 57.5714 7.77434L7.58695 57.7751C2.89886 62.4632 0.268954 68.8175 0.268954 75.4494L0.203613 237.932C0.203613 244.188 6.45985 250.428 12.7161 250.428H37.8063C44.0625 250.428 50.3188 244.172 50.3188 237.932L50.2534 90.2161C50.4984 85.9363 52.1973 81.8363 55.4315 78.5857L68.7444 65.2402C70.5249 63.8027 72.7954 62.9369 75.262 62.9369C77.7285 62.9369 79.9828 63.8027 81.7796 65.2238L95.0924 78.5693C98.3267 81.8036 100.026 85.92 100.271 90.1997L100.189 170.24C100.189 177.134 102.982 183.357 107.523 187.914L116.36 196.752C121.261 201.652 129.167 201.619 134.035 196.752L142.872 187.914C147.364 183.422 150.19 177.133 150.19 170.257L150.271 75.4331C150.271 68.8011 147.641 62.4469 142.953 57.7588L92.9036 7.77434ZM250.159 75.4984C250.159 68.8665 247.512 62.5122 242.824 57.8242L188.919 3.80498C184.46 -0.654418 175.705 -0.654418 171.245 3.80498L153.522 21.0382C149.112 25.4486 149.242 33.42 153.653 37.8304L195.323 78.9777C198.72 82.3754 200.092 85.724 200.191 90.2324V220.274C200.191 227.167 202.967 233.391 207.508 237.948L216.346 246.785C221.246 251.686 229.152 251.653 234.02 246.785L242.857 237.948C247.349 233.456 250.175 227.167 250.175 220.29L250.159 75.4984Z" fill="white"/>
</svg>
