<svg width="251" height="251" viewBox="0 0 251 251" fill="none" xmlns="http://www.w3.org/2000/svg">
<path d="M92.9178 7.77434C83.1496 -1.99387 67.3375 -1.99387 57.5856 7.77434L7.60117 57.7751C2.91308 62.4632 0.283175 68.8175 0.283175 75.4494L0.217834 237.932C0.217834 244.188 6.47407 250.428 12.7303 250.428H37.8205C44.0768 250.428 50.333 244.172 50.333 237.932L50.2676 90.2161C50.5127 85.9363 52.2115 81.8363 55.4458 78.5857L68.7586 65.2402C70.5391 63.8027 72.8097 62.9369 75.2762 62.9369C77.7428 62.9369 79.997 63.8027 81.7938 65.2238L95.1066 78.5693C98.3409 81.8036 100.04 85.92 100.285 90.1997L100.203 170.24C100.203 177.134 102.996 183.357 107.537 187.914L116.375 196.752C121.275 201.652 129.181 201.619 134.049 196.752L142.886 187.914C147.378 183.422 150.204 177.133 150.204 170.257L150.286 75.4331C150.286 68.8011 147.656 62.4469 142.968 57.7588L92.9178 7.77434ZM250.173 75.4984C250.173 68.8665 247.527 62.5122 242.839 57.8242L188.934 3.80498C184.474 -0.654418 175.719 -0.654418 171.259 3.80498L153.536 21.0382C149.126 25.4486 149.256 33.42 153.667 37.8304L195.337 78.9777C198.735 82.3754 200.107 85.724 200.205 90.2324V220.274C200.205 227.167 202.982 233.391 207.523 237.948L216.36 246.785C221.26 251.686 229.166 251.653 234.034 246.785L242.871 237.948C247.363 233.456 250.189 227.167 250.189 220.29L250.173 75.4984Z" fill="#180C25"/>
</svg>
