<svg width="241" height="241" viewBox="0 0 241 241" fill="none" xmlns="http://www.w3.org/2000/svg">
<path d="M203.942 240.787V192.636H221.178C225.3 192.636 228.675 193.228 231.303 194.413C233.93 195.547 235.888 197.196 237.177 199.36C238.465 201.473 239.109 203.946 239.109 206.78C239.109 208.635 238.671 210.464 237.795 212.267C236.97 214.019 235.785 215.591 234.24 216.982C232.745 218.322 230.968 219.301 228.907 219.919L240.5 240.787H230.993L220.018 220.846H212.908V240.787H203.942ZM212.908 213.504H221.719C224.501 213.504 226.588 212.911 227.979 211.726C229.37 210.541 230.066 208.97 230.066 207.012C230.066 205.723 229.757 204.59 229.138 203.611C228.52 202.58 227.593 201.756 226.356 201.138C225.119 200.519 223.548 200.21 221.641 200.21H212.908V213.504Z" fill="white"/>
<path d="M154.106 240.787V192.636L188.5 192.636V199.824L162.685 199.824V212.113L184.017 212.113V219.301L162.685 219.301V233.599L188.345 233.599V240.787L154.106 240.787Z" fill="white"/>
<path d="M103.729 240.787L103.729 192.636H121.969C125.988 192.636 129.26 193.28 131.785 194.568C134.361 195.856 136.267 197.557 137.504 199.669C138.792 201.782 139.436 204.152 139.436 206.78C139.436 208.738 139.076 210.567 138.354 212.267C137.633 213.916 136.551 215.385 135.108 216.673C133.717 217.909 131.939 218.888 129.775 219.61C127.663 220.28 125.189 220.615 122.355 220.615H112.772V240.787H103.729ZM112.772 213.349H121.737C123.644 213.349 125.215 213.092 126.452 212.576C127.74 212.01 128.693 211.237 129.311 210.258C129.981 209.227 130.316 208.068 130.316 206.78C130.316 205.492 129.981 204.358 129.311 203.379C128.693 202.4 127.74 201.627 126.452 201.06C125.215 200.494 123.669 200.21 121.814 200.21H112.772L112.772 213.349Z" fill="white"/>
<path d="M66.9538 240.787V221.851L50.8003 192.636L60.1523 192.636L71.5912 212.963L81.716 192.636H90.6816L75.7648 221.928V240.787H66.9538Z" fill="white"/>
<path d="M17.5809 240.941L0.5 192.636H9.46556L21.059 227.029L32.034 192.636H40.6904L23.7641 240.941H17.5809Z" fill="white"/>
<path d="M130.36 127.852L84.3455 81.838C82.4712 79.8873 81.4385 77.248 81.4385 74.3028L81.4385 8.62862C81.4385 4.80367 77.6135 0.978733 73.7885 0.978733L58.4503 0.978733C54.6253 0.978733 50.8003 4.80367 50.8003 8.62862L50.8003 85.1274C50.8003 89.1819 52.2921 93.0833 55.1608 95.952L108.711 149.501C111.694 152.485 115.596 153.976 119.535 153.976H127.185C131.431 153.976 134.835 150.534 134.835 146.327V138.715C134.835 134.775 133.343 130.874 130.36 127.89V127.852Z" fill="#9F4CF2"/>
<path d="M188.5 8.59037C188.5 4.72718 184.713 0.940491 180.85 0.940491L165.512 0.940491C161.687 0.940491 157.862 4.76543 157.862 8.59037L157.862 74.2264C157.862 77.1716 156.714 79.8108 154.802 81.7998L139.387 97.2143C136.404 100.198 134.912 104.099 134.912 108.039V115.689C134.912 119.934 138.354 123.339 142.562 123.339L150.212 123.339C154.113 123.339 158.053 121.847 161.037 118.863L183.986 95.9138C186.855 93.0451 188.462 89.1437 188.462 85.0892L188.462 8.59037H188.5Z" fill="#9F4CF2"/>
</svg>
