<svg width="476" height="128" viewBox="0 0 476 128" fill="none" xmlns="http://www.w3.org/2000/svg">
<path d="M66.3027 105.977L27.9629 67.6481C26.4012 66.0231 25.5407 63.8247 25.5407 61.3714V6.66622C25.5407 3.48013 22.3537 0.294032 19.1667 0.294032H6.38673C3.19971 0.294032 0.0126953 3.48013 0.0126953 6.66622V70.3881C0.0126953 73.7654 1.25563 77.0152 3.6459 79.4047L48.2642 124.01C50.75 126.495 54.0008 127.738 57.2834 127.738H63.6575C67.1951 127.738 70.0315 124.87 70.0315 121.366V115.025C70.0315 111.744 68.7886 108.494 66.3027 106.009V105.977Z" fill="#E7FF54"/>
<path d="M114.746 6.63437C114.746 3.41641 111.59 0.262177 108.372 0.262177H95.5916C92.4045 0.262177 89.2175 3.44827 89.2175 6.63437V61.3077C89.2175 63.761 88.2614 65.9594 86.6679 67.6162L73.8242 80.4562C71.3384 82.9413 70.0954 86.1911 70.0954 89.4728V95.845C70.0954 99.3816 72.9637 102.217 76.4695 102.217H82.8435C86.0943 102.217 89.3769 100.975 91.8628 98.4895L110.985 79.3729C113.375 76.9833 114.714 73.7335 114.714 70.3563V6.63437H114.746Z" fill="#E7FF54"/>
<path d="M427.253 95.6131V32.1836H449.957C455.387 32.1836 459.833 32.9641 463.294 34.5253C466.756 36.0185 469.335 38.1905 471.032 41.0413C472.729 43.8242 473.578 47.0822 473.578 50.8153C473.578 53.2589 473.001 55.6684 471.847 58.0441C470.761 60.3518 469.2 62.422 467.163 64.2547C465.195 66.0194 462.853 67.3091 460.138 68.1236L475.41 95.6131H462.887L448.43 69.3453H439.063V95.6131H427.253ZM439.063 59.6731H450.67C454.335 59.6731 457.084 58.8925 458.916 57.3314C460.749 55.7702 461.665 53.7001 461.665 51.1208C461.665 49.4239 461.258 47.9306 460.444 46.641C459.629 45.2835 458.407 44.1975 456.778 43.383C455.149 42.5685 453.079 42.1612 450.568 42.1612H439.063V59.6731Z" fill="#232F2C"/>
<path d="M361.604 95.6131V32.1836H406.91V41.6522H372.905V57.8404H401.005V67.3091H372.905V86.1445H406.707V95.6131H361.604Z" fill="#232F2C"/>
<path d="M295.242 95.6131V32.1836H319.27C324.564 32.1836 328.874 33.032 332.2 34.7289C335.594 36.4258 338.105 38.6657 339.734 41.4486C341.431 44.2314 342.28 47.3537 342.28 50.8153C342.28 53.3946 341.805 55.8042 340.854 58.0441C339.904 60.2161 338.479 62.1505 336.578 63.8474C334.746 65.4764 332.404 66.7661 329.553 67.7163C326.77 68.5987 323.512 69.0399 319.779 69.0399H307.154V95.6131H295.242ZM307.154 59.4695H318.965C321.476 59.4695 323.546 59.1301 325.175 58.4513C326.872 57.7047 328.128 56.6866 328.942 55.3969C329.825 54.0394 330.266 52.5122 330.266 50.8153C330.266 49.1185 329.825 47.6252 328.942 46.3356C328.128 45.0459 326.872 44.0278 325.175 43.2812C323.546 42.5346 321.51 42.1612 319.066 42.1612H307.154V59.4695Z" fill="#232F2C"/>
<path d="M246.798 95.6131V70.6689L225.52 32.1836H237.839L252.907 58.9604L266.245 32.1836H278.055L258.405 70.7707V95.6131H246.798Z" fill="#232F2C"/>
<path d="M181.759 95.8165L159.259 32.1834H171.069L186.341 77.4902L200.798 32.1834H212.202L189.904 95.8165H181.759Z" fill="#232F2C"/>
</svg>
