<svg width="476" height="128" viewBox="0 0 476 128" fill="none" xmlns="http://www.w3.org/2000/svg">
<path d="M66.4292 105.977L28.0893 67.6481C26.5277 66.0231 25.6672 63.8247 25.6672 61.3714V6.66622C25.6672 3.48013 22.4802 0.294032 19.2931 0.294032H6.5132C3.32618 0.294032 0.13916 3.48013 0.13916 6.66622V70.3881C0.13916 73.7654 1.3821 77.0152 3.77236 79.4047L48.3906 124.01C50.8765 126.495 54.1273 127.738 57.4099 127.738H63.7839C67.3215 127.738 70.158 124.87 70.158 121.366V115.025C70.158 111.744 68.915 108.494 66.4292 106.009V105.977Z" fill="black"/>
<path d="M114.872 6.63437C114.872 3.41641 111.717 0.262177 108.498 0.262177H95.718C92.531 0.262177 89.344 3.44827 89.344 6.63437V61.3077C89.344 63.761 88.3879 65.9594 86.7944 67.6162L73.9507 80.4562C71.4648 82.9413 70.2219 86.1911 70.2219 89.4728V95.845C70.2219 99.3816 73.0902 102.217 76.5959 102.217H82.97C86.2207 102.217 89.5033 100.975 91.9892 98.4895L111.111 79.3729C113.502 76.9833 114.84 73.7335 114.84 70.3563V6.63437H114.872Z" fill="black"/>
<path d="M427.379 95.6131V32.1836H450.083C455.513 32.1836 459.959 32.9641 463.421 34.5253C466.883 36.0185 469.462 38.1905 471.159 41.0413C472.856 43.8242 473.704 47.0822 473.704 50.8154C473.704 53.2589 473.127 55.6684 471.973 58.0441C470.887 60.3518 469.326 62.422 467.29 64.2547C465.321 66.0194 462.98 67.3091 460.265 68.1236L475.537 95.6131H463.014L448.556 69.3453H439.189V95.6131H427.379ZM439.189 59.6731H450.796C454.461 59.6731 457.21 58.8925 459.043 57.3314C460.876 55.7702 461.792 53.7001 461.792 51.1208C461.792 49.4239 461.385 47.9306 460.57 46.641C459.756 45.2835 458.534 44.1975 456.905 43.383C455.276 42.5685 453.206 42.1612 450.694 42.1612H439.189V59.6731Z" fill="black"/>
<path d="M361.73 95.6131V32.1836H407.037V41.6522H373.031V57.8404H401.132V67.3091H373.031V86.1445H406.833V95.6131H361.73Z" fill="black"/>
<path d="M295.369 95.6131V32.1836H319.396C324.691 32.1836 329.001 33.032 332.327 34.7289C335.72 36.4258 338.232 38.6657 339.861 41.4486C341.558 44.2314 342.406 47.3537 342.406 50.8154C342.406 53.3946 341.931 55.8042 340.981 58.0441C340.031 60.2161 338.605 62.1505 336.705 63.8474C334.872 65.4764 332.53 66.7661 329.68 67.7163C326.897 68.5987 323.639 69.0399 319.905 69.0399H307.281V95.6131H295.369ZM307.281 59.4695H319.091C321.602 59.4695 323.673 59.1301 325.302 58.4513C326.998 57.7047 328.254 56.6866 329.069 55.3969C329.951 54.0394 330.392 52.5122 330.392 50.8154C330.392 49.1185 329.951 47.6252 329.069 46.3356C328.254 45.0459 326.998 44.0278 325.302 43.2812C323.673 42.5346 321.636 42.1612 319.193 42.1612H307.281V59.4695Z" fill="black"/>
<path d="M246.925 95.6131V70.6689L225.646 32.1836H237.965L253.034 58.9604L266.371 32.1836H278.182L258.532 70.7707V95.6131H246.925Z" fill="black"/>
<path d="M181.886 95.8165L159.385 32.1834H171.196L186.467 77.4902L200.925 32.1834H212.328L190.031 95.8165H181.886Z" fill="black"/>
</svg>
