<svg width="476" height="128" viewBox="0 0 476 128" fill="none" xmlns="http://www.w3.org/2000/svg">
<path d="M66.3027 105.915L27.9629 67.5864C26.4012 65.9615 25.5407 63.7631 25.5407 61.3098V6.60454C25.5407 3.41845 22.3537 0.232356 19.1667 0.232356H6.38673C3.19971 0.232356 0.0126953 3.41845 0.0126953 6.60454V70.3264C0.0126953 73.7037 1.25563 76.9535 3.6459 79.3431L48.2642 123.948C50.75 126.434 54.0008 127.676 57.2834 127.676H63.6575C67.1951 127.676 70.0315 124.809 70.0315 121.304V114.964C70.0315 111.682 68.7886 108.432 66.3027 105.947V105.915Z" fill="#E7FF54"/>
<path d="M114.746 6.57269C114.746 3.35473 111.59 0.2005 108.372 0.2005H95.5916C92.4045 0.2005 89.2175 3.3866 89.2175 6.57269V61.2461C89.2175 63.6994 88.2614 65.8978 86.6679 67.5545L73.8242 80.3945C71.3384 82.8796 70.0954 86.1295 70.0954 89.4111V95.7833C70.0954 99.3199 72.9637 102.156 76.4695 102.156H82.8435C86.0942 102.156 89.3769 100.913 91.8628 98.4278L110.985 79.3112C113.375 76.9217 114.714 73.6718 114.714 70.2946V6.57269H114.746Z" fill="#E7FF54"/>
<path d="M427.253 95.5514V32.1219H449.957C455.387 32.1219 459.833 32.9025 463.294 34.4636C466.756 35.9569 469.335 38.1289 471.032 40.9796C472.729 43.7625 473.578 47.0205 473.578 50.7537C473.578 53.1972 473.001 55.6068 471.847 57.9824C470.761 60.2902 469.2 62.3604 467.163 64.193C465.195 65.9577 462.853 67.2474 460.138 68.0619L475.41 95.5514H462.887L448.43 69.2836H439.063V95.5514H427.253ZM439.063 59.6114H450.67C454.335 59.6114 457.084 58.8308 458.916 57.2697C460.749 55.7086 461.665 53.6384 461.665 51.0591C461.665 49.3622 461.258 47.869 460.444 46.5793C459.629 45.2218 458.407 44.1358 456.778 43.3213C455.149 42.5068 453.079 42.0996 450.568 42.0996H439.063V59.6114Z" fill="white"/>
<path d="M361.604 95.5514V32.1219H406.91V41.5905H372.905V57.7788H401.005V67.2474H372.905V86.0828H406.707V95.5514H361.604Z" fill="white"/>
<path d="M295.242 95.5514V32.1219H319.27C324.564 32.1219 328.874 32.9703 332.2 34.6672C335.594 36.3641 338.105 38.604 339.734 41.3869C341.431 44.1698 342.28 47.292 342.28 50.7537C342.28 53.3329 341.805 55.7425 340.854 57.9824C339.904 60.1544 338.479 62.0889 336.578 63.7857C334.746 65.4147 332.404 66.7044 329.553 67.6546C326.77 68.537 323.512 68.9782 319.779 68.9782H307.154V95.5514H295.242ZM307.154 59.4078H318.965C321.476 59.4078 323.546 59.0684 325.175 58.3896C326.872 57.643 328.128 56.6249 328.942 55.3353C329.825 53.9778 330.266 52.4506 330.266 50.7537C330.266 49.0568 329.825 47.5635 328.942 46.2739C328.128 44.9843 326.872 43.9661 325.175 43.2195C323.546 42.4729 321.51 42.0996 319.066 42.0996H307.154V59.4078Z" fill="white"/>
<path d="M246.798 95.5514V70.6072L225.52 32.1219H237.839L252.907 58.8987L266.245 32.1219H278.055L258.405 70.709V95.5514H246.798Z" fill="white"/>
<path d="M181.759 95.7548L159.259 32.1217H171.069L186.341 77.4285L200.798 32.1217H212.202L189.904 95.7548H181.759Z" fill="white"/>
</svg>
