<svg width="305" height="339" viewBox="0 0 305 339" fill="none" xmlns="http://www.w3.org/2000/svg">
<path d="M176.422 280.946L74.736 179.262C70.5942 174.951 68.312 169.119 68.312 162.61V17.4791C68.312 9.02655 59.8593 0.573952 51.4066 0.573952H17.5113C9.05864 0.573952 0.605957 9.02655 0.605957 17.4791V186.531C0.605957 195.491 3.9025 204.112 10.242 210.452L128.58 328.788C135.173 335.381 143.794 338.678 152.501 338.678H169.406C178.789 338.678 186.311 331.07 186.311 321.772V304.952C186.311 296.246 183.015 287.624 176.422 281.031V280.946Z" fill="#E7FF54"/>
<path d="M304.903 17.3946C304.903 8.85751 296.535 0.489441 287.998 0.489441H254.102C245.65 0.489441 237.197 8.94204 237.197 17.3946V162.441C237.197 168.95 234.661 174.782 230.435 179.177L196.371 213.241C189.778 219.834 186.481 228.456 186.481 237.162V254.067C186.481 263.45 194.088 270.972 203.386 270.972H220.292C228.913 270.972 237.62 267.676 244.213 261.083L294.929 210.367C301.268 204.028 304.819 195.406 304.819 186.447V17.3946H304.903Z" fill="#E7FF54"/>
</svg>
