<svg width="305" height="339" viewBox="0 0 305 339" fill="none" xmlns="http://www.w3.org/2000/svg">
<path d="M175.816 280.98L74.1301 179.295C69.9882 174.984 67.706 169.152 67.706 162.644V17.5126C67.706 9.06005 59.2533 0.60746 50.8006 0.60746H16.9054C8.45269 0.60746 0 9.06005 0 17.5126V186.565C0 195.524 3.29655 204.146 9.63606 210.485L127.974 328.822C134.567 335.415 143.188 338.711 151.895 338.711H168.8C178.183 338.711 185.706 331.104 185.706 321.806V304.985C185.706 296.279 182.409 287.658 175.816 281.064V280.98Z" fill="black"/>
<path d="M304.297 17.4281C304.297 8.89102 295.929 0.522949 287.392 0.522949H253.496C245.044 0.522949 236.591 8.97554 236.591 17.4281V162.475C236.591 168.983 234.055 174.815 229.829 179.211L195.765 213.275C189.172 219.868 185.875 228.489 185.875 237.196V254.101C185.875 263.483 193.482 271.006 202.78 271.006H219.686C228.307 271.006 237.014 267.709 243.607 261.116L294.323 210.401C300.662 204.061 304.213 195.44 304.213 186.48V17.4281H304.297Z" fill="black"/>
</svg>
