<svg width="476" height="128" viewBox="0 0 476 128" fill="none" xmlns="http://www.w3.org/2000/svg">
<path d="M66.4292 105.915L28.0893 67.5864C26.5277 65.9615 25.6672 63.7631 25.6672 61.3098V6.60454C25.6672 3.41845 22.4802 0.232356 19.2931 0.232356H6.5132C3.32618 0.232356 0.13916 3.41845 0.13916 6.60454V70.3264C0.13916 73.7037 1.3821 76.9535 3.77236 79.3431L48.3906 123.948C50.8765 126.434 54.1273 127.676 57.4099 127.676H63.7839C67.3215 127.676 70.158 124.809 70.158 121.304V114.964C70.158 111.682 68.915 108.432 66.4292 105.947V105.915Z" fill="white"/>
<path d="M114.872 6.57269C114.872 3.35473 111.717 0.2005 108.498 0.2005H95.718C92.531 0.2005 89.344 3.3866 89.344 6.57269V61.2461C89.344 63.6994 88.3879 65.8978 86.7944 67.5545L73.9507 80.3945C71.4648 82.8796 70.2219 86.1295 70.2219 89.4111V95.7833C70.2219 99.3199 73.0902 102.156 76.5959 102.156H82.97C86.2207 102.156 89.5033 100.913 91.9892 98.4278L111.111 79.3112C113.502 76.9217 114.84 73.6718 114.84 70.2946V6.57269H114.872Z" fill="white"/>
<path d="M427.379 95.5514V32.1219H450.083C455.513 32.1219 459.959 32.9025 463.421 34.4636C466.883 35.9569 469.462 38.1289 471.159 40.9796C472.856 43.7625 473.704 47.0205 473.704 50.7537C473.704 53.1972 473.127 55.6068 471.973 57.9824C470.887 60.2902 469.326 62.3604 467.29 64.193C465.321 65.9577 462.98 67.2474 460.265 68.0619L475.537 95.5514H463.014L448.556 69.2836H439.189V95.5514H427.379ZM439.189 59.6114H450.796C454.461 59.6114 457.21 58.8308 459.043 57.2697C460.876 55.7086 461.792 53.6384 461.792 51.0591C461.792 49.3622 461.385 47.869 460.57 46.5793C459.756 45.2218 458.534 44.1358 456.905 43.3213C455.276 42.5068 453.206 42.0996 450.694 42.0996H439.189V59.6114Z" fill="white"/>
<path d="M361.73 95.5514V32.1219H407.037V41.5905H373.031V57.7788H401.132V67.2474H373.031V86.0828H406.833V95.5514H361.73Z" fill="white"/>
<path d="M295.369 95.5514V32.1219H319.396C324.691 32.1219 329.001 32.9703 332.327 34.6672C335.72 36.3641 338.232 38.604 339.861 41.3869C341.558 44.1698 342.406 47.292 342.406 50.7537C342.406 53.3329 341.931 55.7425 340.981 57.9824C340.031 60.1544 338.605 62.0889 336.705 63.7857C334.872 65.4147 332.53 66.7044 329.68 67.6546C326.897 68.537 323.639 68.9782 319.905 68.9782H307.281V95.5514H295.369ZM307.281 59.4078H319.091C321.602 59.4078 323.673 59.0684 325.302 58.3896C326.998 57.643 328.254 56.6249 329.069 55.3353C329.951 53.9778 330.392 52.4506 330.392 50.7537C330.392 49.0568 329.951 47.5635 329.069 46.2739C328.254 44.9843 326.998 43.9661 325.302 43.2195C323.673 42.4729 321.636 42.0996 319.193 42.0996H307.281V59.4078Z" fill="white"/>
<path d="M246.925 95.5514V70.6072L225.646 32.1219H237.965L253.034 58.8987L266.371 32.1219H278.182L258.532 70.709V95.5514H246.925Z" fill="white"/>
<path d="M181.886 95.7548L159.385 32.1217H171.196L186.467 77.4285L200.925 32.1217H212.328L190.031 95.7548H181.886Z" fill="white"/>
</svg>
