<?xml version="1.0" encoding="UTF-8"?>
<svg id="Layer_2" data-name="Layer 2" xmlns="http://www.w3.org/2000/svg" viewBox="0 0 477.35 128">
  <defs>
    <style>
      .cls-1 {
        fill: #232f2c;
      }

      .cls-1, .cls-2 {
        stroke-width: 0px;
      }

      .cls-2 {
        fill: #e7ff54;
      }
    </style>
  </defs>
  <g id="Layer_1-2" data-name="Layer 1">
    <g>
      <path class="cls-2" d="m66.56,106.15l-38.5-38.49c-1.57-1.63-2.43-3.84-2.43-6.3V6.43C25.63,3.23,22.43.03,19.23.03H6.4C3.2.03,0,3.23,0,6.43v63.98c0,3.39,1.25,6.65,3.65,9.05l44.8,44.79c2.5,2.5,5.76,3.74,9.06,3.74h6.4c3.55,0,6.4-2.88,6.4-6.4v-6.37c0-3.29-1.25-6.56-3.74-9.05v-.03ZM115.21,6.4c0-3.23-3.17-6.4-6.4-6.4h-12.83c-3.2,0-6.4,3.2-6.4,6.4v54.9c0,2.46-.96,4.67-2.56,6.33l-12.9,12.89c-2.5,2.5-3.74,5.76-3.74,9.05v6.4c0,3.55,2.88,6.4,6.4,6.4h6.4c3.26,0,6.56-1.25,9.06-3.74l19.2-19.2c2.4-2.4,3.74-5.66,3.74-9.05V6.4h.03Z"/>
      <g>
        <polygon class="cls-1" points="253.93 58.94 238.8 32.05 226.43 32.05 247.8 70.7 247.8 95.74 259.45 95.74 259.45 70.8 279.19 32.05 267.33 32.05 253.93 58.94"/>
        <polygon class="cls-1" points="187.09 77.55 171.76 32.05 159.9 32.05 182.49 95.95 190.67 95.95 213.06 32.05 201.61 32.05 187.09 77.55"/>
        <path class="cls-1" d="m333.55,34.61c-3.34-1.7-7.67-2.56-12.98-2.56h-24.13v63.69h11.96v-26.68h12.68c3.75,0,7.02-.44,9.81-1.33,2.86-.95,5.21-2.25,7.05-3.88,1.91-1.7,3.34-3.65,4.29-5.83.95-2.25,1.43-4.67,1.43-7.26,0-3.48-.85-6.61-2.56-9.41-1.64-2.79-4.16-5.04-7.56-6.75Zm-3.27,20.75c-.82,1.29-2.08,2.32-3.78,3.07-1.64.68-3.71,1.02-6.24,1.02h-11.86v-17.38h11.96c2.45,0,4.5.37,6.13,1.12,1.7.75,2.97,1.77,3.78,3.07.89,1.29,1.33,2.79,1.33,4.5s-.44,3.24-1.33,4.6Z"/>
        <path class="cls-1" d="m462.02,68.14c2.73-.82,5.08-2.11,7.05-3.88,2.05-1.84,3.61-3.92,4.7-6.24,1.16-2.39,1.74-4.8,1.74-7.26,0-3.75-.85-7.02-2.56-9.81-1.7-2.86-4.29-5.04-7.77-6.54-3.48-1.57-7.94-2.35-13.39-2.35h-22.8v63.69h11.86v-26.38h9.41l14.52,26.38h12.57l-15.33-27.6Zm-1.23-10.84c-1.84,1.57-4.6,2.35-8.28,2.35h-11.65v-17.58h11.55c2.52,0,4.6.41,6.24,1.23s2.86,1.91,3.68,3.27c.82,1.29,1.23,2.79,1.23,4.5,0,2.59-.92,4.67-2.76,6.24Z"/>
        <polygon class="cls-1" points="363.08 95.74 408.37 95.74 408.37 86.24 374.43 86.24 374.43 67.32 402.64 67.32 402.64 57.81 374.43 57.81 374.43 41.56 408.57 41.56 408.57 32.05 363.08 32.05 363.08 95.74"/>
      </g>
    </g>
  </g>
</svg>