<?xml version="1.0" encoding="UTF-8"?>
<svg id="Layer_2" data-name="Layer 2" xmlns="http://www.w3.org/2000/svg" viewBox="0 0 477.35 128">
  <defs>
    <style>
      .cls-1 {
        fill: #fff;
        stroke-width: 0px;
      }
    </style>
  </defs>
  <g id="Layer_1-2" data-name="Layer 1">
    <path class="cls-1" d="m66.56,106.15l-38.5-38.49c-1.57-1.63-2.43-3.84-2.43-6.3V6.43C25.63,3.23,22.43.03,19.23.03H6.4C3.2.03,0,3.23,0,6.43v63.98c0,3.39,1.25,6.65,3.65,9.05l44.8,44.79c2.5,2.5,5.76,3.74,9.06,3.74h6.4c3.55,0,6.4-2.88,6.4-6.4v-6.37c0-3.3-1.25-6.56-3.74-9.05v-.03ZM115.2,6.4c0-3.23-3.17-6.4-6.4-6.4h-12.83c-3.2,0-6.4,3.2-6.4,6.4v54.9c0,2.46-.96,4.67-2.56,6.33l-12.9,12.89c-2.5,2.5-3.74,5.76-3.74,9.05v6.4c0,3.55,2.88,6.4,6.4,6.4h6.4c3.26,0,6.56-1.25,9.06-3.74l19.2-19.2c2.4-2.4,3.74-5.66,3.74-9.05V6.4h.03Zm313.79,89.34v-63.69h22.8c5.45,0,9.92.78,13.39,2.35,3.48,1.5,6.07,3.68,7.77,6.54,1.7,2.79,2.56,6.07,2.56,9.81,0,2.45-.58,4.87-1.74,7.26-1.09,2.32-2.66,4.4-4.7,6.24-1.98,1.77-4.33,3.07-7.05,3.88l15.33,27.6h-12.57l-14.52-26.38h-9.41v26.38h-11.86Zm11.86-36.09h11.65c3.68,0,6.44-.78,8.28-2.35s2.76-3.65,2.76-6.24c0-1.7-.41-3.2-1.23-4.5-.82-1.36-2.04-2.45-3.68-3.27s-3.71-1.23-6.24-1.23h-11.55v17.58Zm-77.78,36.09v-63.69h45.49v9.51h-34.15v16.25h28.22v9.51h-28.22v18.91h33.94v9.51h-45.29Zm-66.63,0v-63.69h24.13c5.32,0,9.64.85,12.98,2.56,3.41,1.7,5.93,3.95,7.56,6.75,1.7,2.79,2.56,5.93,2.56,9.41,0,2.59-.48,5.01-1.43,7.26-.95,2.18-2.39,4.12-4.29,5.83-1.84,1.64-4.19,2.93-7.05,3.88-2.79.89-6.07,1.33-9.82,1.33h-12.68v26.68h-11.96Zm11.96-36.29h11.86c2.52,0,4.6-.34,6.24-1.02,1.7-.75,2.96-1.77,3.78-3.07.89-1.36,1.33-2.9,1.33-4.6s-.44-3.2-1.33-4.5c-.82-1.29-2.08-2.32-3.78-3.07-1.64-.75-3.68-1.12-6.13-1.12h-11.96v17.38Zm-60.6,36.29v-25.05l-21.37-38.64h12.37l15.13,26.89,13.39-26.89h11.86l-19.73,38.75v24.94h-11.65Zm-65.31.2l-22.59-63.89h11.86l15.33,45.49,14.52-45.49h11.45l-22.39,63.89h-8.18Z"/>
  </g>
</svg>