<svg width="443" height="242" viewBox="0 0 443 242" fill="none" xmlns="http://www.w3.org/2000/svg">
<g clip-path="url(#clip0_111_965)">
<path d="M15.455 240.267V199.547H0.925049V192.127H39.245V199.547H24.025V240.267H15.445H15.455ZM55.155 240.267V233.077H65.665V199.307H55.695V192.117H84.595V199.307H74.0851V233.147H85.055V240.257H55.155V240.267ZM115.875 240.267V199.547H101.345V192.127H139.665V199.547H124.445V240.267H115.865H115.875ZM180.915 228.907H159.895L161.445 222.567H179.295L180.915 228.907ZM170.795 207.657L159.515 240.267H150.625L168.785 191.747H172.885L191.045 240.267H181.925L170.795 207.657ZM203.005 192.127H212.195L231.205 224.197L230.815 192.127H239.545V192.827C239.235 193.137 239.025 193.467 238.925 193.827C238.875 194.187 238.845 194.807 238.845 195.677V240.257H230.735L211.105 206.187V240.257H202.995V192.117L203.005 192.127ZM271.375 241.187C267.105 241.187 263.495 240.207 260.555 238.247C257.675 236.287 255.455 233.457 253.915 229.747C252.425 226.037 251.675 221.527 251.675 216.227C251.675 210.927 252.425 206.667 253.915 203.017C255.465 199.307 257.675 196.477 260.555 194.517C263.495 192.507 267.095 191.507 271.375 191.507C275.655 191.507 279.155 192.507 282.035 194.517C284.975 196.477 287.185 199.307 288.675 203.017C290.225 206.677 290.995 211.077 290.995 216.227C290.995 221.377 290.225 226.067 288.675 229.827C287.185 233.537 284.965 236.367 282.035 238.327C279.155 240.237 275.595 241.187 271.375 241.187ZM271.215 233.997C273.485 234.017 275.415 233.387 277.025 232.117C278.635 230.797 279.885 228.817 280.785 226.197C281.685 223.577 282.155 220.257 282.195 216.247C282.225 212.537 281.825 209.397 280.965 206.807C280.115 204.167 278.895 202.177 277.315 200.827C275.735 199.417 273.805 198.707 271.535 198.687C269.265 198.667 267.225 199.347 265.565 200.717C263.955 202.037 262.705 204.017 261.805 206.637C260.955 209.207 260.515 212.347 260.485 216.047C260.445 220.067 260.825 223.387 261.625 226.027C262.475 228.667 263.695 230.657 265.275 232.007C266.915 233.307 268.885 233.977 271.205 233.997H271.215ZM303.505 240.257V192.117H319.495C322.685 192.117 325.445 192.427 327.765 193.047C330.085 193.617 331.985 194.437 333.485 195.517C335.035 196.547 336.165 197.807 336.885 199.307C337.605 200.797 337.965 202.427 337.965 204.177C337.965 205.567 337.685 206.987 337.115 208.427C336.595 209.817 335.805 211.077 334.715 212.217C333.635 213.297 332.265 214.127 330.615 214.687C332.055 215.197 333.345 215.877 334.475 216.697C335.655 217.467 336.665 218.367 337.485 219.397C338.305 220.427 338.925 221.537 339.335 222.717C339.795 223.907 340.035 225.137 340.035 226.427C340.035 228.537 339.625 230.447 338.795 232.147C337.975 233.847 336.705 235.317 335.005 236.547C333.355 237.737 331.215 238.657 328.595 239.327C326.015 239.947 322.955 240.257 319.405 240.257H303.485H303.505ZM312.315 232.997H320.355C322.565 232.997 324.455 232.737 325.995 232.227C327.595 231.717 328.805 230.967 329.625 229.987C330.445 228.957 330.865 227.667 330.865 226.127C330.865 224.587 330.455 223.247 329.625 222.107C328.855 220.917 327.585 219.997 325.835 219.327C324.135 218.657 321.845 218.327 318.955 218.327H312.315V233.007V232.997ZM312.315 211.367H318.655C321.285 211.367 323.345 211.107 324.835 210.597C326.385 210.087 327.465 209.357 328.085 208.437C328.755 207.457 329.085 206.327 329.085 205.037C329.085 204.157 328.905 203.387 328.545 202.717C328.185 201.997 327.615 201.377 326.845 200.867C326.075 200.357 325.065 199.967 323.835 199.707C322.645 199.397 321.235 199.247 319.585 199.247H312.325V211.377L312.315 211.367ZM371.795 241.197C367.515 241.197 363.915 240.217 360.975 238.257C358.095 236.297 355.875 233.467 354.335 229.757C352.845 226.047 352.095 221.537 352.095 216.237C352.095 210.937 352.845 206.677 354.335 203.027C355.885 199.317 358.095 196.487 360.975 194.527C363.915 192.517 367.515 191.517 371.795 191.517C376.075 191.517 379.575 192.517 382.455 194.527C385.395 196.487 387.605 199.317 389.095 203.027C390.645 206.687 391.415 211.087 391.415 216.237C391.415 221.387 390.645 226.077 389.095 229.837C387.605 233.547 385.385 236.377 382.455 238.337C379.575 240.247 376.015 241.197 371.795 241.197ZM371.795 234.007C374.065 234.007 375.995 233.367 377.595 232.077C379.195 230.737 380.425 228.757 381.305 226.127C382.185 223.497 382.615 220.177 382.615 216.157C382.615 212.447 382.175 209.307 381.305 206.727C380.425 204.097 379.195 202.117 377.595 200.777C375.995 199.387 374.065 198.687 371.795 198.687C369.525 198.687 367.495 199.387 365.845 200.777C364.245 202.117 363.015 204.097 362.135 206.727C361.315 209.307 360.895 212.447 360.895 216.157C360.895 220.177 361.305 223.497 362.135 226.127C363.015 228.757 364.245 230.737 365.845 232.077C367.495 233.367 369.475 234.007 371.795 234.007ZM431.975 228.907H410.955L412.505 222.567H430.355L431.975 228.907ZM421.855 207.657L410.575 240.267H401.685L419.845 191.747H423.945L442.105 240.267H432.985L421.855 207.657Z" fill="white"/>
<path d="M291.665 10.397L284.015 2.74702C282.525 1.25702 280.565 0.507021 278.605 0.507021L247.965 0.457021C243.745 0.457021 240.315 3.88702 240.315 8.10702V23.407C240.315 27.627 243.745 31.057 247.965 31.057C247.965 31.057 278.585 31.107 278.605 31.107C280.565 31.107 282.525 30.357 284.015 28.867L291.665 21.217C294.645 18.227 294.645 13.377 291.665 10.397ZM235.865 35.537L205.295 4.97702C202.425 2.10702 198.535 0.497021 194.475 0.497021L163.805 0.447021C159.585 0.447021 156.155 3.87702 156.155 8.09702V23.397C156.155 27.617 159.585 31.047 163.805 31.047C163.805 31.047 184.455 31.127 185.225 31.127C187.225 31.127 189.185 32.117 190.615 33.617H190.645L207.565 50.527C208.865 51.927 209.725 53.737 209.725 55.567L209.745 138.227C209.755 140.167 210.505 142.107 211.985 143.587L219.635 151.237C221.125 152.727 223.085 153.477 225.045 153.477C227.005 153.477 228.965 152.727 230.455 151.237L238.105 143.587C239.585 142.107 240.335 140.167 240.345 138.217V46.357C240.345 42.297 238.735 38.407 235.865 35.537Z" fill="white"/>
</g>
<defs>
<clipPath id="clip0_111_965">
<rect width="441.15" height="240.75" fill="white" transform="translate(0.925049 0.447021)"/>
</clipPath>
</defs>
</svg>
