<svg width="389" height="242" viewBox="0 0 389 242" fill="none" xmlns="http://www.w3.org/2000/svg">
<g clip-path="url(#clip0_118_2850)">
<path d="M69.0551 241.207C64.7751 241.207 61.1751 240.227 58.2351 238.267C55.3451 236.307 53.1351 233.477 51.5851 229.767C50.0951 226.057 49.3451 221.547 49.3451 216.237C49.3451 210.927 50.0951 206.677 51.5851 203.017C53.1351 199.307 55.3451 196.477 58.2351 194.517C61.1751 192.507 64.7751 191.507 69.0551 191.507C73.3351 191.507 76.8351 192.517 79.7251 194.517C82.6651 196.477 84.8751 199.307 86.3751 203.017C87.9251 206.677 88.6951 211.077 88.6951 216.237C88.6951 221.397 87.9251 226.077 86.3751 229.837C84.8851 233.547 82.6651 236.377 79.7251 238.337C76.8351 240.247 73.2851 241.197 69.0551 241.197V241.207ZM69.0551 234.017C71.3251 234.017 73.2551 233.377 74.8551 232.087C76.4551 230.747 77.6851 228.767 78.5651 226.137C79.4451 223.507 79.8751 220.187 79.8751 216.167C79.8751 212.457 79.4351 209.317 78.5651 206.737C77.6851 204.107 76.4551 202.127 74.8551 200.787C73.2551 199.397 71.3251 198.697 69.0551 198.697C66.7851 198.697 64.7551 199.397 63.1051 200.787C61.5051 202.127 60.2751 204.107 59.3951 206.737C58.5751 209.317 58.1551 212.457 58.1551 216.167C58.1551 220.187 58.5651 223.507 59.3951 226.137C60.2751 228.767 61.5051 230.747 63.1051 232.087C64.7551 233.377 66.7351 234.017 69.0551 234.017ZM121.675 241.127C118.735 241.127 116.005 240.637 113.485 239.657C110.965 238.677 108.715 237.187 106.765 235.177C104.855 233.167 103.365 230.617 102.285 227.527C101.205 224.387 100.665 220.697 100.665 216.477C100.665 212.717 101.075 209.447 101.905 206.657C102.785 203.827 103.915 201.457 105.305 199.547C106.745 197.587 108.375 196.017 110.175 194.827C112.025 193.637 113.935 192.787 115.895 192.277C117.905 191.707 119.915 191.427 121.925 191.427C125.895 191.427 129.265 192.247 132.045 193.897C134.875 195.547 137.045 197.867 138.535 200.857L132.975 205.107L132.435 205.497L131.975 204.957C132.025 204.547 131.975 204.157 131.825 203.797C131.725 203.387 131.435 202.847 130.975 202.177C129.735 200.787 128.375 199.857 126.875 199.397C125.435 198.887 123.915 198.627 122.315 198.627C120.615 198.627 118.995 198.987 117.445 199.707C115.895 200.427 114.505 201.537 113.275 203.027C112.085 204.467 111.165 206.297 110.495 208.517C109.825 210.677 109.495 213.207 109.495 216.087C109.495 218.967 109.805 221.367 110.425 223.587C111.045 225.747 111.895 227.607 112.975 229.147C114.105 230.637 115.425 231.797 116.915 232.627C118.465 233.397 120.115 233.787 121.865 233.787C123.255 233.787 124.575 233.637 125.805 233.327C127.045 232.967 128.175 232.397 129.205 231.627C130.235 230.807 131.135 229.777 131.915 228.537L137.945 233.097C135.985 235.987 133.695 238.047 131.065 239.277C128.435 240.517 125.315 241.127 121.715 241.127H121.675ZM171.895 241.127C168.955 241.127 166.225 240.637 163.705 239.657C161.185 238.677 158.935 237.187 156.985 235.177C155.075 233.167 153.585 230.617 152.505 227.527C151.425 224.387 150.885 220.697 150.885 216.477C150.885 212.717 151.295 209.447 152.125 206.657C153.005 203.827 154.135 201.457 155.525 199.547C156.965 197.587 158.595 196.017 160.395 194.827C162.255 193.637 164.155 192.787 166.115 192.277C168.125 191.707 170.135 191.427 172.145 191.427C176.115 191.427 179.485 192.247 182.275 193.897C185.105 195.547 187.275 197.867 188.765 200.857L183.205 205.107L182.665 205.497L182.205 204.957C182.255 204.547 182.205 204.157 182.055 203.797C181.955 203.387 181.665 202.847 181.205 202.177C179.965 200.787 178.605 199.857 177.105 199.397C175.665 198.887 174.145 198.627 172.545 198.627C170.845 198.627 169.225 198.987 167.675 199.707C166.125 200.427 164.735 201.537 163.505 203.027C162.315 204.467 161.395 206.297 160.725 208.517C160.055 210.677 159.715 213.207 159.715 216.087C159.715 218.967 160.025 221.367 160.645 223.587C161.265 225.747 162.115 227.607 163.195 229.147C164.325 230.637 165.645 231.797 167.135 232.627C168.685 233.397 170.335 233.787 172.085 233.787C173.475 233.787 174.785 233.637 176.025 233.327C177.265 232.967 178.395 232.397 179.425 231.627C180.455 230.807 181.355 229.777 182.135 228.537L188.165 233.097C186.205 235.987 183.915 238.047 181.285 239.277C178.655 240.517 175.535 241.127 171.935 241.127H171.895ZM229.695 228.917H208.675L210.225 222.577H228.075L229.695 228.917ZM219.575 207.667L208.295 240.287H199.405L217.565 191.747H221.665L239.825 240.287H230.705L219.575 207.667ZM269.185 241.137C265.685 241.137 262.405 240.677 259.365 239.747C256.325 238.767 253.775 237.297 251.715 235.337L256.045 228.147L256.435 227.527L257.135 227.917C257.235 228.277 257.365 228.667 257.525 229.077C257.735 229.437 258.145 229.897 258.765 230.467C260.205 231.447 261.835 232.247 263.635 232.867C265.435 233.487 267.425 233.797 269.585 233.797C270.975 233.797 272.235 233.667 273.375 233.407C274.565 233.147 275.565 232.767 276.385 232.247C277.265 231.727 277.935 231.087 278.395 230.317C278.855 229.497 279.095 228.587 279.095 227.607C279.095 226.937 278.995 226.317 278.785 225.747C278.625 225.177 278.325 224.637 277.855 224.127C277.395 223.607 276.745 223.097 275.925 222.577C275.105 222.007 274.045 221.417 272.755 220.797C271.515 220.127 269.995 219.427 268.195 218.707C264.535 217.267 261.655 215.817 259.535 214.377C257.425 212.887 255.905 211.287 254.975 209.587C254.095 207.837 253.665 205.877 253.665 203.717C253.665 201.297 254.365 199.157 255.755 197.297C257.195 195.447 259.185 193.997 261.705 192.967C264.285 191.887 267.195 191.347 270.435 191.347C272.595 191.347 274.635 191.577 276.545 192.047C278.455 192.507 280.225 193.207 281.875 194.137C283.525 195.017 285.015 196.147 286.355 197.537L280.795 204.027L280.255 203.567C280.205 203.157 280.105 202.767 279.945 202.407C279.795 201.997 279.435 201.507 278.865 200.937C277.675 200.007 276.395 199.387 275.005 199.077C273.665 198.717 272.115 198.537 270.365 198.537C269.175 198.537 268.095 198.667 267.115 198.927C266.135 199.137 265.285 199.467 264.565 199.927C263.895 200.387 263.355 200.937 262.945 201.547C262.585 202.117 262.405 202.737 262.405 203.407C262.405 204.027 262.485 204.587 262.635 205.107C262.845 205.617 263.175 206.137 263.645 206.657C264.105 207.167 264.775 207.717 265.655 208.277C266.535 208.847 267.635 209.437 268.975 210.057C270.315 210.677 271.965 211.367 273.925 212.147C276.605 213.227 278.845 214.307 280.645 215.397C282.445 216.477 283.865 217.587 284.895 218.717C285.975 219.847 286.745 221.117 287.215 222.507C287.675 223.847 287.915 225.367 287.915 227.067C287.915 229.437 287.245 231.707 285.905 233.867C284.615 235.977 282.585 237.727 279.795 239.127C277.065 240.467 273.535 241.137 269.205 241.137H269.185ZM304.805 240.287V233.097H315.315V199.317H305.345V192.127H334.255V199.317H323.745V233.167H334.725V240.277H304.815L304.805 240.287ZM352.245 192.137H361.445L380.455 224.217L380.065 192.137H388.795V192.837C388.485 193.147 388.285 193.477 388.175 193.837C388.125 194.197 388.095 194.817 388.095 195.697V240.297H379.985L360.355 206.207V240.297H352.235V192.147L352.245 192.137ZM0.205078 240.287V192.137H8.01508L18.8351 214.237L29.6551 192.057H37.3851V240.287H29.5751V206.357L20.6851 224.287H16.3551L7.93508 206.437V240.287H0.205078Z" fill="#180C25"/>
<path d="M174.735 4.91701C168.755 -1.06299 159.075 -1.06299 153.105 4.91701L122.505 35.527C119.635 38.397 118.025 42.287 118.025 46.347L117.985 145.817C117.985 149.647 121.815 153.467 125.645 153.467H141.005C144.835 153.467 148.665 149.637 148.665 145.817L148.625 55.387C148.775 52.767 149.815 50.257 151.795 48.267L159.945 40.097C161.035 39.217 162.425 38.687 163.935 38.687C165.445 38.687 166.825 39.217 167.925 40.087L176.075 48.257C178.055 50.237 179.095 52.757 179.245 55.377L179.195 104.377C179.195 108.597 180.905 112.407 183.685 115.197L189.095 120.607C192.095 123.607 196.935 123.587 199.915 120.607L205.325 115.197C208.075 112.447 209.805 108.597 209.805 104.387L209.855 46.337C209.855 42.277 208.245 38.387 205.375 35.517L174.765 4.91701H174.735ZM271.005 46.377C271.005 42.317 269.385 38.427 266.515 35.557L233.515 2.48701C230.785 -0.242993 225.425 -0.242993 222.695 2.48701L211.845 13.037C209.145 15.737 209.225 20.617 211.925 23.317L237.435 48.507C239.515 50.587 240.355 52.637 240.415 55.397V135.007C240.415 139.227 242.115 143.037 244.895 145.827L250.305 151.237C253.305 154.237 258.145 154.217 261.125 151.237L266.535 145.827C269.285 143.077 271.015 139.227 271.015 135.017V46.377H271.005Z" fill="#FF8F08"/>
</g>
<defs>
<clipPath id="clip0_118_2850">
<rect width="388.59" height="240.77" fill="white" transform="translate(0.205078 0.437012)"/>
</clipPath>
</defs>
</svg>
