<svg width="389" height="241" viewBox="0 0 389 241" fill="none" xmlns="http://www.w3.org/2000/svg">
<path d="M69.7501 240.866C65.4501 240.866 61.8501 239.866 58.9501 237.966C56.0501 235.966 53.8501 233.166 52.3501 229.466C50.8501 225.766 50.1501 221.266 50.1501 215.966C50.1501 210.766 50.8501 206.366 52.3501 202.766C53.8501 199.066 56.1501 196.266 58.9501 194.266C61.8501 192.266 65.4501 191.266 69.7501 191.266C73.9501 191.266 77.5501 192.266 80.4501 194.266C83.3501 196.266 85.6501 199.066 87.0501 202.766C88.5501 206.466 89.3501 210.866 89.3501 215.966C89.3501 221.266 88.5501 225.766 87.0501 229.566C85.5501 233.266 83.3501 236.066 80.4501 238.066C77.4501 239.866 73.9501 240.866 69.7501 240.866ZM69.7501 233.666C72.0501 233.666 73.9501 233.066 75.5501 231.766C77.1501 230.466 78.3501 228.466 79.2501 225.766C80.1501 223.166 80.5501 219.766 80.5501 215.766C80.5501 212.066 80.1501 208.866 79.2501 206.366C78.3501 203.766 77.1501 201.766 75.5501 200.366C73.9501 198.966 72.0501 198.266 69.7501 198.266C67.4501 198.266 65.4501 198.966 63.7501 200.366C62.1501 201.666 60.9501 203.666 60.0501 206.366C59.2501 208.966 58.8501 212.066 58.8501 215.766C58.8501 219.766 59.2501 223.066 60.0501 225.766C60.9501 228.366 62.1501 230.366 63.7501 231.766C65.3501 232.966 67.3501 233.666 69.7501 233.666ZM122.35 240.766C119.45 240.766 116.65 240.266 114.15 239.266C111.65 238.266 109.35 236.766 107.45 234.766C105.55 232.766 104.05 230.166 102.95 227.066C101.85 223.966 101.35 220.266 101.35 215.966C101.35 212.166 101.75 208.966 102.55 206.166C103.45 203.366 104.55 200.966 105.95 199.066C107.35 197.066 109.05 195.566 110.85 194.366C112.75 193.166 114.65 192.366 116.55 191.766C118.55 191.166 120.55 190.866 122.55 190.866C126.55 190.866 129.85 191.666 132.65 193.366C135.45 194.966 137.65 197.366 139.15 200.366L133.55 204.666L133.05 205.066L132.55 204.566C132.65 204.166 132.55 203.766 132.35 203.366C132.25 202.966 131.95 202.366 131.45 201.766C130.25 200.366 128.85 199.466 127.35 198.966C125.95 198.466 124.35 198.166 122.75 198.166C121.05 198.166 119.45 198.566 117.85 199.266C116.35 199.966 114.95 201.066 113.65 202.566C112.45 203.966 111.55 205.866 110.85 208.066C110.15 210.266 109.85 212.766 109.85 215.666C109.85 218.466 110.15 220.966 110.75 223.166C111.35 225.366 112.25 227.166 113.35 228.766C114.45 230.266 115.75 231.466 117.25 232.266C118.75 233.066 120.45 233.466 122.15 233.466C123.55 233.466 124.85 233.266 126.05 232.966C127.25 232.566 128.45 232.066 129.45 231.266C130.45 230.466 131.35 229.366 132.15 228.166L138.15 232.766C136.15 235.666 133.85 237.666 131.25 238.966C129.05 240.166 125.95 240.766 122.35 240.766ZM172.55 240.766C169.65 240.766 166.85 240.266 164.35 239.266C161.85 238.266 159.55 236.766 157.65 234.766C155.75 232.766 154.25 230.166 153.15 227.066C152.05 223.966 151.55 220.266 151.55 215.966C151.55 212.166 151.95 208.966 152.75 206.166C153.65 203.366 154.75 200.966 156.15 199.066C157.55 197.066 159.25 195.566 161.05 194.366C162.95 193.166 164.85 192.366 166.75 191.766C168.75 191.166 170.75 190.866 172.75 190.866C176.75 190.866 180.05 191.666 182.85 193.366C185.65 194.966 187.85 197.366 189.35 200.366L183.75 204.666L183.25 205.066L182.75 204.566C182.85 204.166 182.75 203.766 182.55 203.366C182.45 202.966 182.15 202.366 181.65 201.766C180.45 200.366 179.05 199.466 177.55 198.966C176.15 198.466 174.55 198.166 172.95 198.166C171.25 198.166 169.65 198.566 168.05 199.266C166.55 199.966 165.15 201.066 163.85 202.566C162.65 203.966 161.75 205.866 161.05 208.066C160.35 210.266 160.05 212.766 160.05 215.666C160.05 218.466 160.35 220.966 160.95 223.166C161.55 225.366 162.45 227.166 163.55 228.766C164.65 230.266 165.95 231.466 167.45 232.266C168.95 233.066 170.65 233.466 172.35 233.466C173.75 233.466 175.05 233.266 176.25 232.966C177.45 232.566 178.65 232.066 179.65 231.266C180.65 230.466 181.55 229.366 182.35 228.166L188.35 232.766C186.35 235.666 184.05 237.666 181.45 238.966C179.25 240.166 176.15 240.766 172.55 240.766ZM230.35 228.566H209.35L210.85 222.266H228.75L230.35 228.566ZM220.25 207.266L208.95 239.866H200.05L218.25 191.366H222.35L240.55 239.866H231.45L220.25 207.266ZM269.85 240.766C266.35 240.766 263.05 240.266 260.05 239.366C257.05 238.366 254.45 236.966 252.35 234.966L256.65 227.766L257.05 227.166L257.75 227.566C257.85 227.966 257.95 228.266 258.15 228.766C258.35 229.166 258.75 229.566 259.35 230.166C260.75 231.166 262.45 231.966 264.25 232.566C266.05 233.166 268.05 233.466 270.25 233.466C271.65 233.466 272.95 233.366 274.05 233.066C275.25 232.766 276.25 232.466 277.05 231.866C277.95 231.366 278.55 230.666 279.05 229.966C279.55 229.166 279.75 228.266 279.75 227.266C279.75 226.566 279.65 225.966 279.45 225.366C279.25 224.766 278.95 224.266 278.55 223.766C278.05 223.266 277.45 222.766 276.65 222.266C275.85 221.666 274.75 221.066 273.45 220.466C272.25 219.766 270.65 219.066 268.85 218.366C265.15 216.966 262.35 215.466 260.15 214.066C258.05 212.566 256.55 210.966 255.55 209.266C254.65 207.466 254.25 205.566 254.25 203.366C254.25 200.966 254.95 198.766 256.35 196.966C257.75 195.066 259.75 193.666 262.35 192.666C264.95 191.566 267.85 191.066 271.05 191.066C273.25 191.066 275.25 191.266 277.15 191.766C279.05 192.266 280.85 192.966 282.45 193.866C284.05 194.766 285.55 195.866 286.95 197.266L281.35 203.766L280.85 203.266C280.75 202.866 280.65 202.466 280.55 202.066C280.35 201.666 280.05 201.166 279.45 200.566C278.25 199.666 276.95 199.066 275.55 198.666C274.25 198.266 272.65 198.166 270.95 198.166C269.75 198.166 268.65 198.266 267.75 198.566C266.75 198.766 265.95 199.066 265.15 199.566C264.45 200.066 263.95 200.566 263.55 201.166C263.15 201.766 263.05 202.366 263.05 203.066C263.05 203.666 263.15 204.266 263.25 204.766C263.45 205.266 263.75 205.766 264.25 206.266C264.75 206.766 265.35 207.366 266.25 207.866C267.15 208.466 268.25 209.066 269.55 209.666C270.85 210.266 272.55 210.966 274.45 211.766C277.15 212.866 279.35 213.966 281.15 214.966C282.95 216.066 284.35 217.166 285.45 218.266C286.55 219.366 287.35 220.666 287.75 222.066C288.25 223.366 288.45 224.966 288.45 226.666C288.45 229.066 287.75 231.266 286.45 233.466C285.15 235.566 283.15 237.366 280.35 238.766C277.65 240.066 274.15 240.766 269.85 240.766ZM305.45 239.866V232.666H315.95V198.866H305.95V191.666H334.85V198.866H324.35V232.766H335.35V239.866H305.45ZM352.85 191.766H362.05L381.05 223.866L380.65 191.766H389.35V192.466C389.05 192.766 388.85 193.066 388.75 193.466C388.65 193.866 388.65 194.466 388.65 195.366V239.966H380.55L360.95 205.866V239.966H352.85V191.766ZM0.850098 239.866V191.666H8.6501L19.4501 213.766L30.2501 191.566H37.9501V239.766H30.1501V205.866L21.2501 223.766H16.9501L8.5501 206.066V239.966H0.850098V239.866Z" fill="white"/>
<path d="M175.35 4.56602C169.35 -1.43398 159.65 -1.43398 153.75 4.56602L123.15 35.166C120.25 38.066 118.65 41.966 118.65 45.966V145.466C118.65 149.266 122.45 153.166 126.35 153.166H141.75C145.55 153.166 149.45 149.366 149.45 145.466V55.066C149.55 52.466 150.65 49.966 152.65 47.966L160.75 39.766C161.85 38.866 163.25 38.366 164.75 38.366C166.25 38.366 167.65 38.866 168.75 39.766L176.85 47.966C178.85 49.966 179.85 52.466 180.05 55.066V104.066C180.05 108.266 181.75 112.066 184.55 114.866L189.95 120.266C192.95 123.266 197.75 123.266 200.75 120.266L206.15 114.866C208.95 112.066 210.65 108.266 210.65 104.066V45.966C210.65 41.866 209.05 38.066 206.15 35.166L175.35 4.56602ZM271.65 45.966C271.65 41.866 270.05 37.966 267.15 35.166L234.15 2.06602C231.45 -0.633984 226.05 -0.633984 223.35 2.06602L212.55 12.666C209.85 15.366 209.95 20.266 212.65 22.966L238.15 48.166C240.25 50.266 241.05 52.266 241.15 55.066V134.666C241.15 138.866 242.85 142.666 245.65 145.466L251.05 150.866C254.05 153.866 258.85 153.866 261.85 150.866L267.25 145.466C270.05 142.666 271.75 138.866 271.75 134.666L271.65 45.966Z" fill="#FF8F08"/>
</svg>
