<svg width="244" height="271" viewBox="0 0 244 271" fill="none" xmlns="http://www.w3.org/2000/svg">
<path d="M239.062 18.347L225.562 4.84703C222.929 2.21453 219.473 0.891528 216.017 0.891528L161.963 0.797028C154.511 0.797028 148.463 6.84503 148.463 14.297V41.297C148.463 48.749 154.511 54.797 161.963 54.797C161.963 54.797 215.99 54.8915 216.017 54.8915C219.473 54.8915 222.929 53.5685 225.562 50.936L239.062 37.436C244.327 32.1575 244.327 23.612 239.062 18.347Z" fill="white"/>
<path d="M140.62 62.708L86.6872 8.78903C81.6247 3.72653 74.7532 0.891528 67.5982 0.891528L13.4902 0.797028C6.03823 0.797028 -0.00976562 6.84503 -0.00976562 14.297V41.297C-0.00976562 48.749 6.03823 54.797 13.4902 54.797C13.4902 54.797 49.9267 54.932 51.2767 54.932C54.8137 54.932 58.2562 56.687 60.7807 59.3195L90.6832 89.1545C92.9782 91.625 94.4902 94.8245 94.4902 98.051C94.5037 146.665 94.5307 195.278 94.5307 243.892C94.5577 247.321 95.8672 250.736 98.4862 253.342L111.986 266.842C114.619 269.474 118.075 270.797 121.531 270.797C124.987 270.797 128.443 269.474 131.075 266.842L144.575 253.342C147.194 250.723 148.504 247.307 148.531 243.865C148.531 189.842 148.531 135.82 148.531 81.797C148.531 74.6285 145.682 67.7705 140.62 62.708Z" fill="white"/>
</svg>
