<svg width="659" height="113" viewBox="0 0 659 113" fill="none" xmlns="http://www.w3.org/2000/svg">
<path d="M99.3537 8.23913L93.7703 2.65572C92.6828 1.56823 91.2523 1.02084 89.8218 1.02084L67.459 0.984349C64.379 0.984349 61.8756 3.48776 61.8756 6.56775V17.7346C61.8756 20.8146 64.379 23.318 67.459 23.318C67.459 23.318 89.8072 23.3545 89.8218 23.3545C91.2523 23.3545 92.6828 22.8071 93.7703 21.7196L99.3537 16.1362C101.529 13.9539 101.529 10.4141 99.3537 8.23913ZM58.6277 26.5877L36.316 4.2833C34.2213 2.18861 31.3821 1.01354 28.4189 1.01354L6.03422 0.977051C2.95422 0.977051 0.450806 3.48046 0.450806 6.56046V17.7273C0.450806 20.8073 2.95422 23.3107 6.03422 23.3107C6.03422 23.3107 21.1058 23.3691 21.6678 23.3691C23.1275 23.3691 24.558 24.0916 25.6017 25.1864L37.9728 37.5283C38.9216 38.5501 39.5492 39.8711 39.5492 41.2068L39.5638 101.537C39.5711 102.953 40.1185 104.369 41.1987 105.449L46.7821 111.032C47.8696 112.12 49.3001 112.667 50.7306 112.667C52.1612 112.667 53.5917 112.12 54.6792 111.032L60.2626 105.449C61.3428 104.369 61.8902 102.953 61.8975 101.529V34.4848C61.8975 31.5216 60.7224 28.6824 58.6277 26.5877Z" fill="white"/>
<path d="M162.866 84.6066V37.2979H145.985V28.6773H190.505V37.2979H172.823V84.6066H162.854H162.866ZM208.99 84.6066V76.2532H221.2V37.0191H209.617V28.6657H243.193V37.0191H230.982V76.3345H243.727V84.5949H208.99V84.6066ZM279.534 84.6066V37.2979H262.653V28.6773H307.173V37.2979H289.491V84.6066H279.523H279.534ZM355.098 71.4085H330.677L332.478 64.0426H353.216L355.098 71.4085ZM343.34 46.7202L330.235 84.6066H319.907L341.005 28.2359H345.769L366.867 84.6066H356.271L343.34 46.7202ZM380.762 28.6773H391.439L413.525 65.9364L413.072 28.6773H423.214V29.4906C422.854 29.8508 422.61 30.2342 422.494 30.6524C422.436 31.0707 422.401 31.791 422.401 32.8017V84.5949H412.979L390.173 45.0123V84.5949H380.75V28.6657L380.762 28.6773ZM460.195 85.6754C455.234 85.6754 451.04 84.5368 447.624 82.2597C444.278 79.9826 441.699 76.6947 439.91 72.3844C438.178 68.0741 437.307 62.8344 437.307 56.6768C437.307 50.5192 438.178 45.57 439.91 41.3294C441.71 37.0191 444.278 33.7312 447.624 31.4541C451.04 29.1188 455.222 27.957 460.195 27.957C465.167 27.957 469.233 29.1188 472.579 31.4541C475.995 33.7312 478.563 37.0191 480.294 41.3294C482.095 45.5816 482.989 50.6935 482.989 56.6768C482.989 62.6601 482.095 68.109 480.294 72.4773C478.563 76.7876 475.983 80.0755 472.579 82.3527C469.233 84.5717 465.097 85.6754 460.195 85.6754ZM460.009 77.3221C462.646 77.3453 464.888 76.6133 466.759 75.1379C468.629 73.6043 470.082 71.3039 471.127 68.26C472.173 65.2161 472.719 61.3589 472.765 56.7C472.8 52.3898 472.335 48.7417 471.336 45.7326C470.349 42.6655 468.931 40.3535 467.096 38.785C465.26 37.1469 463.018 36.322 460.38 36.2988C457.743 36.2756 455.373 37.0656 453.445 38.6572C451.574 40.1908 450.122 42.4912 449.076 45.5351C448.089 48.521 447.577 52.169 447.543 56.4677C447.496 61.1381 447.938 64.9953 448.867 68.0625C449.855 71.1296 451.272 73.4416 453.108 75.0101C455.013 76.5204 457.302 77.2988 459.997 77.3221H460.009ZM497.523 84.5949V28.6657H516.101C519.807 28.6657 523.013 29.0259 525.709 29.7462C528.404 30.4084 530.611 31.3611 532.354 32.6159C534.155 33.8125 535.468 35.2764 536.304 37.0191C537.141 38.7502 537.559 40.6439 537.559 42.6771C537.559 44.292 537.234 45.9417 536.572 47.6147C535.967 49.2296 535.05 50.6935 533.783 52.018C532.528 53.2727 530.937 54.237 529.02 54.8876C530.693 55.4802 532.192 56.2702 533.504 57.2229C534.875 58.1174 536.049 59.1631 537.001 60.3597C537.954 61.5564 538.674 62.846 539.151 64.2169C539.685 65.5995 539.964 67.0285 539.964 68.5272C539.964 70.9786 539.488 73.1976 538.523 75.1727C537.571 77.1478 536.095 78.8556 534.12 80.2847C532.203 81.6672 529.717 82.7361 526.673 83.5145C523.676 84.2348 520.12 84.5949 515.996 84.5949H497.5H497.523ZM507.759 76.1602H517.1C519.667 76.1602 521.863 75.8582 523.652 75.2657C525.511 74.6731 526.917 73.8018 527.87 72.6632C528.822 71.4666 529.31 69.9678 529.31 68.1786C529.31 66.3895 528.834 64.8327 527.87 63.5082C526.975 62.1257 525.5 61.0568 523.466 60.2784C521.491 59.5 518.831 59.1166 515.473 59.1166H507.759V76.1719V76.1602ZM507.759 51.0304H515.125C518.18 51.0304 520.573 50.7284 522.305 50.1358C524.105 49.5433 525.36 48.6952 526.08 47.6264C526.859 46.4878 527.242 45.175 527.242 43.6762C527.242 42.6538 527.033 41.7593 526.615 40.9809C526.197 40.1444 525.534 39.424 524.64 38.8315C523.745 38.239 522.572 37.7859 521.143 37.4838C519.76 37.1237 518.122 36.9494 516.205 36.9494H507.77V51.0421L507.759 51.0304ZM576.863 85.687C571.89 85.687 567.708 84.5485 564.292 82.2713C560.946 79.9942 558.367 76.7063 556.578 72.396C554.847 68.0857 553.975 62.846 553.975 56.6884C553.975 50.5309 554.847 45.5816 556.578 41.341C558.379 37.0307 560.946 33.7428 564.292 31.4657C567.708 29.1305 571.89 27.9687 576.863 27.9687C581.835 27.9687 585.902 29.1305 589.248 31.4657C592.663 33.7428 595.231 37.0307 596.962 41.341C598.763 45.5932 599.657 50.7051 599.657 56.6884C599.657 62.6717 598.763 68.1206 596.962 72.4889C595.231 76.7992 592.652 80.0871 589.248 82.3643C585.902 84.5833 581.766 85.687 576.863 85.687ZM576.863 77.3337C579.5 77.3337 581.742 76.5901 583.601 75.0914C585.46 73.5346 586.889 71.2342 587.912 68.1786C588.934 65.1231 589.434 61.2659 589.434 56.5955C589.434 52.2852 588.922 48.6371 587.912 45.6397C586.889 42.5841 585.46 40.2838 583.601 38.727C581.742 37.112 579.5 36.2988 576.863 36.2988C574.226 36.2988 571.867 37.112 569.95 38.727C568.091 40.2838 566.662 42.5841 565.64 45.6397C564.687 48.6371 564.199 52.2852 564.199 56.5955C564.199 61.2659 564.676 65.1231 565.64 68.1786C566.662 71.2342 568.091 73.5346 569.95 75.0914C571.867 76.5901 574.167 77.3337 576.863 77.3337ZM646.78 71.4085H622.359L624.16 64.0426H644.898L646.78 71.4085ZM635.023 46.7202L621.918 84.6066H611.589L632.688 28.2359H637.451L658.549 84.6066H647.954L635.023 46.7202Z" fill="white"/>
</svg>
