<svg width="478" height="129" viewBox="0 0 478 129" fill="none" xmlns="http://www.w3.org/2000/svg">
<path d="M66.7019 106.412L28.2043 67.9253C26.6362 66.2937 25.7722 64.0862 25.7722 61.6229V6.69259C25.7722 3.49339 22.5721 0.294193 19.3719 0.294193H6.53942C3.33929 0.294193 0.13916 3.49339 0.13916 6.69259V70.6766C0.13916 74.0678 1.38721 77.3309 3.78731 79.7303L48.5891 124.519C51.0852 127.015 54.3494 128.262 57.6455 128.262H64.0458C67.5979 128.262 70.446 125.383 70.446 121.864V115.497C70.446 112.202 69.198 108.939 66.7019 106.444V106.412Z" fill="#180C25"/>
<path d="M115.344 6.66061C115.344 3.42942 112.176 0.262207 108.944 0.262207H96.1112C92.9111 0.262207 89.711 3.46141 89.711 6.66061V61.5589C89.711 64.0223 88.7509 66.2297 87.1509 67.8933L74.2543 80.7861C71.7582 83.2815 70.5102 86.5447 70.5102 89.8398V96.2382C70.5102 99.7894 73.3903 102.637 76.9105 102.637H83.3107C86.5748 102.637 89.871 101.389 92.3671 98.8936L111.568 79.6984C113.968 77.299 115.312 74.0358 115.312 70.6446V6.66061H115.344Z" fill="#180C25"/>
<path d="M429.137 96.0054V32.3149H451.934C457.387 32.3149 461.851 33.0987 465.327 34.6663C468.803 36.1657 471.392 38.3466 473.096 41.2091C474.8 44.0034 475.652 47.2748 475.652 51.0233C475.652 53.4769 475.073 55.8964 473.914 58.2818C472.824 60.5991 471.256 62.6778 469.212 64.5179C467.235 66.29 464.884 67.5849 462.157 68.4028L477.492 96.0054H464.918L450.401 69.6295H440.996V96.0054H429.137ZM440.996 59.9175H452.65C456.33 59.9175 459.091 59.1337 460.931 57.5662C462.771 55.9986 463.691 53.9199 463.691 51.33C463.691 49.6262 463.282 48.1268 462.464 46.8318C461.646 45.4687 460.42 44.3783 458.784 43.5604C457.148 42.7426 455.069 42.3336 452.548 42.3336H440.996V59.9175Z" fill="#180C25"/>
<path d="M363.218 96.0054V32.3149H408.711V41.8225H374.565V58.0773H402.781V67.5849H374.565V86.4978H408.506V96.0054H363.218Z" fill="#180C25"/>
<path d="M296.583 96.0054V32.3149H320.71C326.026 32.3149 330.354 33.1669 333.693 34.8707C337.101 36.5746 339.623 38.8237 341.258 41.618C342.962 44.4124 343.814 47.5475 343.814 51.0233C343.814 53.6132 343.337 56.0327 342.383 58.2818C341.429 60.4628 339.998 62.4052 338.089 64.109C336.249 65.7447 333.898 67.0397 331.035 67.9938C328.241 68.8798 324.969 69.3228 321.221 69.3228H308.544V96.0054H296.583ZM308.544 59.7131H320.403C322.925 59.7131 325.004 59.3723 326.639 58.6907C328.343 57.941 329.604 56.9187 330.422 55.6238C331.308 54.2607 331.751 52.7272 331.751 51.0233C331.751 49.3195 331.308 47.8201 330.422 46.5251C329.604 45.2302 328.343 44.2079 326.639 43.4582C325.004 42.7085 322.959 42.3336 320.505 42.3336H308.544V59.7131Z" fill="#180C25"/>
<path d="M247.94 96.0054V70.9586L226.574 32.3149H238.944L254.074 59.2019L267.466 32.3149H279.325L259.595 71.0608V96.0054H247.94Z" fill="#180C25"/>
<path d="M182.634 96.2096L160.04 32.3147H171.899L187.234 77.8079L201.751 32.3147H213.201L190.812 96.2096H182.634Z" fill="#180C25"/>
</svg>
